<svg width="198" height="100" viewBox="0 0 198 100" fill="none" xmlns="http://www.w3.org/2000/svg">
<g clip-path="url(#clip0_10319_45388)">
<path d="M54.5384 47.257C55.9381 47.257 57.105 47.9798 57.6494 48.7613V47.4524H59.7878V57.2187H58.257C58.1772 57.2187 58.0981 57.2029 58.0244 57.1722C57.9507 57.1415 57.8837 57.0965 57.8272 57.0398C57.7708 56.9831 57.726 56.9157 57.6955 56.8416C57.665 56.7675 57.6493 56.6881 57.6494 56.6079V55.9105C57.105 56.6921 55.9381 57.4145 54.5384 57.4145C51.8756 57.4145 49.8535 55.1292 49.8535 52.3358C49.8535 49.5426 51.8756 47.257 54.5384 47.257ZM54.9273 49.2106C53.1968 49.2106 52.0303 50.5779 52.0303 52.3358C52.0303 54.0936 53.1968 55.4616 54.9273 55.4616C56.6578 55.4616 57.8243 54.0935 57.8243 52.3358C57.8243 50.578 56.6578 49.2106 54.9273 49.2106ZM62.2159 47.4524H64.3549V48.7807C64.9376 47.8042 66.0462 47.257 67.3097 47.257C69.5647 47.257 71.0227 48.859 71.0227 51.3395V57.2188H69.4922C69.4124 57.2188 69.3333 57.2031 69.2595 57.1724C69.1858 57.1418 69.1187 57.0968 69.0622 57.0401C69.0057 56.9834 68.9609 56.9161 68.9303 56.842C68.8997 56.7679 68.884 56.6885 68.8839 56.6083V51.6915C68.8839 50.1478 68.1064 49.2106 66.8627 49.2106C65.4435 49.2106 64.355 50.3238 64.355 52.4136V57.2188H62.8238C62.744 57.2188 62.665 57.203 62.5912 57.1724C62.5174 57.1417 62.4504 57.0967 62.394 57.04C62.3375 56.9834 62.2927 56.916 62.2622 56.842C62.2316 56.7679 62.2159 56.6885 62.2159 56.6083V47.4524ZM77.3998 47.257C78.7996 47.257 79.966 47.9798 80.5105 48.7613V42.5695H82.6485V57.2187H81.1181C81.0383 57.2187 80.9592 57.2029 80.8855 57.1722C80.8117 57.1415 80.7447 57.0965 80.6883 57.0398C80.6319 56.9831 80.5871 56.9157 80.5566 56.8416C80.5261 56.7675 80.5104 56.6881 80.5105 56.6079V55.9105C79.966 56.6921 78.7996 57.4145 77.3998 57.4145C74.7362 57.4145 72.7145 55.1292 72.7145 52.3358C72.7145 49.5426 74.7362 47.257 77.3998 47.257ZM77.7887 49.2106C76.059 49.2106 74.8922 50.5779 74.8922 52.3358C74.8922 54.0936 76.059 55.4616 77.7887 55.4616C79.5186 55.4616 80.6853 54.0935 80.6853 52.3358C80.6853 50.578 79.5186 49.2106 77.7887 49.2106ZM85.0774 47.4524H87.2157V49.1912C87.5849 48.0773 88.6735 47.3546 89.7822 47.3546C90.0538 47.3546 90.3267 47.3746 90.6178 47.4331V49.6405C90.2486 49.5229 89.9378 49.464 89.5489 49.464C88.3239 49.464 87.2157 50.4994 87.2157 52.453V57.2188H85.6852C85.6054 57.2188 85.5264 57.203 85.4526 57.1724C85.3789 57.1417 85.3119 57.0967 85.2554 57.04C85.199 56.9834 85.1542 56.916 85.1236 56.842C85.093 56.7679 85.0773 56.6885 85.0773 56.6083V47.4524H85.0774ZM96.3842 57.4143C93.5068 57.4143 91.291 55.1678 91.291 52.3362C91.291 49.5036 93.5068 47.2571 96.3842 47.2571C99.2615 47.2571 101.477 49.5035 101.477 52.3361C101.477 55.1678 99.2615 57.4143 96.3842 57.4143ZM96.3842 55.4223C98.0948 55.4223 99.3004 54.074 99.3004 52.3362C99.3004 50.5979 98.0948 49.2497 96.3842 49.2497C94.6541 49.2497 93.4488 50.5978 93.4488 52.3362C93.4488 54.074 94.6541 55.4223 96.3842 55.4223ZM104.279 45.3235C103.502 45.3235 102.841 44.6792 102.841 43.878C102.841 43.0965 103.502 42.4521 104.279 42.4521C105.076 42.4521 105.699 43.0965 105.699 43.878C105.699 44.6792 105.076 45.3235 104.279 45.3235ZM103.211 47.4524H105.349V57.219H103.819C103.658 57.219 103.503 57.1546 103.389 57.04C103.275 56.9255 103.211 56.7701 103.211 56.6081V47.4524ZM111.792 47.257C113.191 47.257 114.358 47.9798 114.903 48.7613V42.5695H117.041V57.2187H115.51C115.43 57.2187 115.351 57.2029 115.278 57.1722C115.204 57.1415 115.137 57.0965 115.08 57.0398C115.024 56.9831 114.979 56.9157 114.949 56.8416C114.918 56.7675 114.902 56.6881 114.902 56.6079V55.9105C114.358 56.6921 113.191 57.4145 111.792 57.4145C109.129 57.4145 107.107 55.1292 107.107 52.3358C107.107 49.5426 109.129 47.257 111.792 47.257ZM112.18 49.2106C110.451 49.2106 109.284 50.5779 109.284 52.3358C109.284 54.0936 110.451 55.4616 112.18 55.4616C113.91 55.4616 115.077 54.0935 115.077 52.3358C115.077 50.578 113.91 49.2106 112.18 49.2106Z" fill="black"/>
<path d="M140.638 53.5326C140.043 53.5326 139.559 53.0457 139.559 52.4477C139.559 51.8495 140.043 51.3629 140.638 51.3629C141.233 51.3629 141.718 51.8494 141.718 52.4477C141.718 53.0457 141.233 53.5326 140.638 53.5326ZM128.706 53.5326C128.11 53.5326 127.626 53.0457 127.626 52.4477C127.626 51.8495 128.11 51.3629 128.706 51.3629C129.301 51.3629 129.785 51.8494 129.785 52.4477C129.785 53.0457 129.301 53.5326 128.706 53.5326ZM141.025 46.9986L143.183 43.2439C143.242 43.1402 143.258 43.0172 143.228 42.9017C143.197 42.7862 143.122 42.6877 143.019 42.6278C142.916 42.5681 142.793 42.552 142.678 42.583C142.563 42.6139 142.465 42.6894 142.405 42.7929L140.221 46.595C138.55 45.829 136.674 45.4023 134.672 45.4023C132.67 45.4023 130.794 45.829 129.123 46.5951L126.938 42.793C126.879 42.6895 126.781 42.614 126.666 42.583C126.551 42.552 126.428 42.5681 126.325 42.6278C126.222 42.6876 126.147 42.7861 126.116 42.9016C126.085 43.0172 126.101 43.1403 126.161 43.2439L128.318 46.9986C124.614 49.0233 122.08 52.7919 121.709 57.2444H147.635C147.264 52.7919 144.73 49.0233 141.025 46.9986Z" fill="black"/>
</g>
<defs>
<clipPath id="clip0_10319_45388">
<rect width="118" height="35" fill="white" transform="translate(39.7441 32.4041)"/>
</clipPath>
</defs>
</svg>
