<svg width="198" height="100" viewBox="0 0 198 100" fill="none" xmlns="http://www.w3.org/2000/svg">
<g clip-path="url(#clip0_10319_45293)">
<path d="M127.084 53.5237C124.806 53.5237 123.208 51.9334 123.208 49.6945C123.208 47.4556 124.806 45.8653 127.084 45.8653C129.362 45.8653 130.96 47.4556 130.96 49.6945C130.96 51.9334 129.362 53.5237 127.084 53.5237ZM111.405 53.5237C109.127 53.5237 107.528 51.9334 107.528 49.6945C107.528 47.4556 109.127 45.8653 111.405 45.8653C113.682 45.8653 115.281 47.4556 115.281 49.6945C115.281 51.9334 113.682 53.5237 111.405 53.5237ZM94.7616 53.5028C94.6302 53.5028 94.5426 53.4191 94.5426 53.2936V46.0955C94.5426 45.9699 94.6302 45.8862 94.7616 45.8862H95.7251C98.0026 45.8862 99.6012 47.4556 99.6012 49.6945C99.6012 51.9334 98.0026 53.5028 95.7251 53.5028H94.7616ZM82.8487 53.9841C81.491 53.9841 80.7903 53.4819 80.7903 52.4775C80.7903 51.6823 81.5786 51.1174 82.7173 51.1174H85.5203C85.6518 51.1174 85.7393 51.2011 85.7393 51.3266V52.059C85.7393 53.0006 84.1188 53.9841 82.8487 53.9841ZM67.9576 48.2716C67.8262 48.2716 67.7386 48.1879 67.7386 48.0624V46.0955C67.7386 45.9699 67.8262 45.8862 67.9576 45.8862H70.6512C71.6585 45.8862 72.2497 46.3256 72.2497 47.0789C72.2497 47.8322 71.6585 48.2716 70.6512 48.2716H67.9576ZM67.9576 53.5028C67.8262 53.5028 67.7386 53.4191 67.7386 53.2936V51.3266C67.7386 51.2011 67.8262 51.1174 67.9576 51.1174H71.1767C72.1841 51.1174 72.7753 51.5568 72.7753 52.3101C72.7753 53.0634 72.1841 53.5028 71.1767 53.5028H67.9576ZM111.405 57.2274C114.821 57.2274 117.668 55.4488 118.784 52.5403C118.872 52.331 119.047 52.2264 119.244 52.2264C119.441 52.2264 119.617 52.331 119.704 52.5403C120.821 55.4488 123.668 57.2274 127.084 57.2274C131.617 57.2274 135.011 54.0469 135.011 49.6945C135.011 45.3422 131.617 42.1616 127.084 42.1616C123.668 42.1616 120.821 43.9402 119.704 46.8487C119.617 47.058 119.441 47.1626 119.244 47.1626C119.047 47.1626 118.872 47.058 118.784 46.8487C117.668 43.9402 114.821 42.1616 111.405 42.1616C107.988 42.1616 105.142 43.9402 104.025 46.8487C103.937 47.058 103.762 47.1626 103.565 47.1626C103.368 47.1626 103.193 47.058 103.105 46.8487C102.01 44.0867 99.1851 42.3709 95.7251 42.3709H91.0388C90.7979 42.3709 90.6008 42.5592 90.6008 42.7894V51.9962C90.6008 52.2473 90.4037 52.4147 90.141 52.4147C89.8782 52.4147 89.6811 52.2473 89.6811 51.9962V47.9996C89.6811 44.1913 87.5131 42.1616 83.44 42.1616C79.3668 42.1616 77.2865 43.9402 77.1769 46.6395C77.1769 46.8906 77.3522 47.0789 77.6149 47.0789H80.8121C81.0311 47.0789 81.2063 46.9325 81.2501 46.7023C81.4472 45.7607 82.3012 45.2166 83.44 45.2166C84.9948 45.2166 85.7393 45.9908 85.7393 47.2882V47.8741C85.7393 48.1042 85.5422 48.2926 85.3013 48.2926H82.0823C79.7829 48.2926 78.1624 49.1923 77.2426 50.5106C77.1113 50.6989 76.9799 50.8245 76.7828 50.8245C76.5857 50.8245 76.4543 50.6989 76.3229 50.5106C76.0164 50.0712 75.5565 49.6527 74.8995 49.3806C74.7243 49.3178 74.7243 49.2132 74.8338 49.1295C75.7974 48.3972 76.2572 47.5393 76.2572 46.4512C76.2572 43.8774 74.374 42.3709 71.1767 42.3709H64.2348C63.994 42.3709 63.7969 42.5592 63.7969 42.7894V56.5997C63.7969 56.8298 63.994 57.0182 64.2348 57.0182H71.3957C73.4542 57.0182 75.4032 56.0138 76.3229 54.5909C76.4543 54.4026 76.5857 54.277 76.7828 54.277C76.9799 54.277 77.1332 54.4026 77.2426 54.5909C78.1405 56.1602 79.4763 57.1437 81.6005 57.1437C83.2648 57.1437 84.4473 56.6834 85.586 55.4279C85.6736 55.3233 85.805 55.3442 85.8269 55.4697C86.0021 56.1393 86.3744 56.6206 86.9657 56.9972C87.1189 57.1019 87.2942 57.0809 87.4255 56.9763L89.7468 55.3233C90.1628 55.0303 90.6008 55.1977 90.6008 55.6371V56.5997C90.6008 56.8298 90.7979 57.0182 91.0388 57.0182H95.7251C99.1851 57.0182 102.01 55.3023 103.105 52.5403C103.193 52.331 103.368 52.2264 103.565 52.2264C103.762 52.2264 103.937 52.331 104.025 52.5403C105.142 55.4488 107.988 57.2274 111.405 57.2274Z" fill="black"/>
</g>
<defs>
<clipPath id="clip0_10319_45293">
<rect width="71.5011" height="15.6954" fill="white" transform="translate(63.6533 41.8542)"/>
</clipPath>
</defs>
</svg>
