<svg width="198" height="100" viewBox="0 0 198 100" fill="none" xmlns="http://www.w3.org/2000/svg">
<g clip-path="url(#clip0_10319_45319)">
<mask id="mask0_10319_45319" style="mask-type:luminance" maskUnits="userSpaceOnUse" x="50" y="41" width="98" height="18">
<path d="M147.362 41.8542H50.5742V58.4216H147.362V41.8542Z" fill="white"/>
</mask>
<g mask="url(#mask0_10319_45319)">
<path d="M61.8163 44.6441H56.078C55.3277 44.6441 54.7188 44.052 54.7188 43.3211C54.7188 42.5902 55.3269 41.998 56.078 41.998H61.8163C62.5667 41.998 63.1755 42.5902 63.1755 43.3211C63.1755 44.052 62.5673 44.6441 61.8163 44.6441Z" fill="black"/>
<path d="M65.9742 49.0548H51.9197C51.1766 49.0548 50.5742 48.4627 50.5742 47.7318C50.5742 47.0009 51.1766 46.4088 51.9197 46.4088H65.9742C66.7173 46.4088 67.3196 47.0009 67.3196 47.7318C67.3196 48.4627 66.7173 49.0548 65.9742 49.0548Z" fill="black"/>
<path d="M53.1068 53.4644C52.3644 53.4644 51.7627 52.8723 51.7627 52.1414C51.7627 51.4105 52.3644 50.8184 53.1068 50.8184H64.7862C65.5286 50.8184 66.1303 51.4105 66.1303 52.1414C66.1303 52.8723 65.5286 53.4644 64.7862 53.4644H53.1068Z" fill="black"/>
<path d="M61.1786 57.8745H56.7186C55.9683 57.8745 55.3594 57.2824 55.3594 56.5515C55.3594 55.8206 55.9675 55.2285 56.7186 55.2285H61.1786C61.9289 55.2285 62.5378 55.8206 62.5378 56.5515C62.5378 57.2824 61.9296 57.8745 61.1786 57.8745Z" fill="black"/>
<path d="M137.731 51.4145C137.845 49.6621 139.283 48.5308 141.429 48.5308C143.46 48.5308 144.898 49.6621 144.898 51.2813C144.898 51.3479 144.852 51.4145 144.738 51.4145H137.731ZM141.588 58.4022C143.711 58.4022 145.559 57.559 146.633 56.0954C146.793 55.8739 146.884 55.6292 146.884 55.3853C146.884 54.8309 146.45 54.4313 145.88 54.4313C145.515 54.4313 145.217 54.587 144.829 54.9858C143.894 55.9615 142.912 56.4052 141.657 56.4052C139.374 56.4052 137.822 55.1189 137.708 53.1444H146.974C147.225 53.1444 147.363 53.0112 147.363 52.7897V52.5458C147.363 48.952 145.011 46.6011 141.405 46.6011C137.798 46.6011 135.219 48.9745 135.219 52.5458C135.219 56.1171 137.73 58.4022 141.587 58.4022H141.588ZM132.778 58.4022C133.508 58.4022 134.033 57.8694 134.033 57.1601V43.0963C134.033 42.3863 133.485 41.8542 132.778 41.8542C132.07 41.8542 131.522 42.387 131.522 43.0963V57.1601C131.522 57.8702 132.07 58.4022 132.778 58.4022ZM118.786 58.4022C119.493 58.4022 119.995 57.8694 119.995 57.1601V56.4501C120.771 57.6922 122.3 58.4022 124.218 58.4022C127.848 58.4022 130.335 55.9846 130.335 52.4575C130.335 48.9303 127.87 46.6011 124.424 46.6011C122.484 46.6011 120.795 47.3994 120.065 48.6864V43.0963C120.065 42.3863 119.516 41.8542 118.809 41.8542C118.101 41.8542 117.553 42.387 117.553 43.0963V57.1601C117.553 57.8702 118.078 58.4022 118.786 58.4022ZM123.876 56.4059C121.41 56.4059 119.95 54.9641 119.95 52.5016C119.95 50.0392 121.41 48.5974 123.876 48.5974C126.341 48.5974 127.825 50.0392 127.825 52.5016C127.825 54.9641 126.364 56.4059 123.876 56.4059ZM89.7517 58.4022C91.4178 58.4022 92.8561 57.6922 93.5405 56.5608V57.1594C93.5405 57.8694 94.0887 58.4015 94.7962 58.4015C95.5038 58.4015 96.052 57.8688 96.052 57.1594V48.1978C96.052 47.4878 95.5038 46.9557 94.7962 46.9557C94.0887 46.9557 93.5405 47.4885 93.5405 48.1978V53.5657C93.5405 55.4737 92.4904 56.5159 90.5732 56.5159C88.6561 56.5159 87.5829 55.4737 87.5829 53.5657V48.1978C87.5829 47.4878 87.0346 46.9557 86.3272 46.9557C85.6196 46.9557 85.0714 47.4885 85.0714 48.1978V53.6988C85.0714 56.7157 86.7375 58.4015 89.7503 58.4015L89.7517 58.4022ZM73.2721 48.3759V44.0945C73.2721 44.0055 73.3637 43.9171 73.4546 43.9171H78.339C79.9143 43.9171 80.8498 44.7379 80.8498 46.1356C80.8498 47.5333 79.9143 48.3759 78.339 48.3759H73.2721ZM71.104 58.0475H78.5453C81.8322 58.0475 83.8863 56.2285 83.8863 53.3449C83.8863 51.0822 82.8138 49.796 80.5764 49.3964C82.3566 49.0418 83.3836 47.7772 83.3836 45.9583C83.3836 43.4517 81.4665 41.8542 78.4761 41.8542H71.1032C70.8976 41.8542 70.7383 42.0099 70.7383 42.2089V57.6922C70.7383 57.892 70.8984 58.0468 71.1032 58.0468L71.104 58.0475ZM73.2721 55.7848V50.5053H78.4306C80.2338 50.5053 81.3294 51.5476 81.3294 53.2335C81.3294 54.9192 80.2338 55.9615 78.4306 55.9615H73.4546C73.363 55.9615 73.2721 55.8724 73.2721 55.7842V55.7848ZM98.7683 58.4022C99.4989 58.4022 100.024 57.8694 100.024 57.1601V51.4369C100.024 49.6179 101.097 48.4866 102.854 48.4866C104.612 48.4866 105.548 49.5738 105.548 51.4369V57.1601C105.548 57.8702 106.096 58.4022 106.803 58.4022C107.511 58.4022 108.059 57.8694 108.059 57.1601V51.4369C108.059 49.6179 109.132 48.4866 110.889 48.4866C112.647 48.4866 113.582 49.5738 113.582 51.4369V57.1601C113.582 57.8702 114.131 58.4022 114.838 58.4022C115.546 58.4022 116.094 57.8694 116.094 57.1601V51.3037C116.094 48.3534 114.405 46.6011 111.574 46.6011C109.703 46.6011 108.311 47.3777 107.557 48.8196C106.804 47.3336 105.525 46.6011 103.654 46.6011C101.943 46.6011 100.71 47.2221 100.025 48.4424V48.1985C100.025 47.4885 99.4766 46.9564 98.769 46.9564C98.0615 46.9564 97.5133 47.4892 97.5133 48.1985V57.1601C97.5133 57.8702 98.0615 58.4022 98.769 58.4022H98.7683Z" fill="black"/>
</g>
</g>
<defs>
<clipPath id="clip0_10319_45319">
<rect width="97" height="17" fill="white" transform="translate(50.8721 41.468)"/>
</clipPath>
</defs>
</svg>
