<svg width="198" height="100" viewBox="0 0 198 100" fill="none" xmlns="http://www.w3.org/2000/svg">
<g clip-path="url(#clip0_10319_45305)">
<path d="M78.2818 46.4238H70.9398C70.1186 46.4238 69.5028 46.7992 69.5028 47.5492C69.5028 48.2992 69.913 48.6746 70.9398 48.6746H77.8716V51.2658H69.5028V56.3225H65.3975V44.2509C65.3975 43.8906 65.7327 43.5995 66.1456 43.5995H78.2809V46.423L78.2818 46.4238Z" fill="black"/>
<path d="M92.9985 46.4233H85.6566C84.8354 46.4233 84.2196 46.7987 84.2196 47.5487C84.2196 48.2987 84.6298 48.6741 85.6566 48.6741H92.5884V51.2653H84.2196V53.4986H92.9985V56.322H80.1143V43.5983H92.9985V46.4217V46.4233Z" fill="black"/>
<path d="M108.172 46.424H100.391C99.5698 46.424 98.9541 46.7994 98.9541 47.5494C98.9541 48.2994 99.3643 48.6748 100.391 48.6748H107.761V51.2661H98.955V53.4994H108.172V56.3228H94.8506V43.599H108.172V46.4224L108.172 46.424Z" fill="black"/>
<path d="M116.463 53.5118H122.827V56.3241H110.018V43.6003H114.288V51.2992C114.288 52.8254 114.566 53.5118 116.463 53.5118Z" fill="black"/>
<path d="M124.552 43.601H134.173C137.498 43.601 142.131 45.6562 142.131 49.8556C142.131 54.4303 137.498 56.324 134.173 56.324H124.552V43.6002V43.601ZM130.299 53.5014H134.05C135.691 53.5014 137.923 51.8574 137.923 49.8564C137.923 48.1408 135.897 46.4253 134.05 46.4253H130.299C129.416 46.4253 128.657 46.7824 128.657 48.0334V51.7143C128.657 52.6973 129.006 53.5014 130.299 53.5014Z" fill="black"/>
</g>
<defs>
<clipPath id="clip0_10319_45305">
<rect width="76.7329" height="13.0795" fill="white" transform="translate(65.3975 43.5983)"/>
</clipPath>
</defs>
</svg>
