<svg width="198" height="100" viewBox="0 0 198 100" fill="none" xmlns="http://www.w3.org/2000/svg">
<path d="M99.1221 36.4041C106.289 36.4041 112.1 42.2143 112.1 49.3816C112.1 54.1211 109.558 58.266 105.765 60.531V55.7048C107.332 54.059 108.296 51.8336 108.296 49.3816C108.296 44.3151 104.189 40.2078 99.1221 40.2078C94.0556 40.2078 89.9483 44.3151 89.9482 49.3816C89.9482 54.3497 93.8977 58.3923 98.8281 58.5476V50.9529H95.248V47.1492H102.632V61.8777C101.515 62.1906 100.338 62.3591 99.1221 62.3591C91.9548 62.3591 86.1445 56.5489 86.1445 49.3816C86.1445 42.2143 91.9548 36.4041 99.1221 36.4041Z" fill="black"/>
</svg>
