<svg width="198" height="100" viewBox="0 0 198 100" fill="none" xmlns="http://www.w3.org/2000/svg">
<g clip-path="url(#clip0_10319_45276)">
<path d="M81.9789 45.9472C81.9789 45.4378 81.5778 45.0199 81.0163 45.0199C80.4548 45.0199 80.0537 45.4378 80.0537 45.9472V53.4697C80.0537 53.9791 80.4548 54.3971 81.0163 54.3971C81.5911 54.3971 81.9789 53.9791 81.9789 53.4697V45.9472Z" fill="black"/>
<path d="M91.4575 45.0198C90.896 45.0198 90.5083 45.4377 90.5083 45.947V49.1598L90.5617 52.0331L89.3986 49.3426L87.8745 46.2866C87.4066 45.3332 86.8719 45.0198 86.1098 45.0198C84.9869 45.0198 84.4922 45.712 84.4922 46.7045V53.4696C84.4922 53.979 84.8799 54.3969 85.4414 54.3969C86.0029 54.3969 86.3906 53.979 86.3906 53.4696L86.3773 50.2961L86.3371 47.0441L87.5805 50.0217L89.1179 53.13C89.5992 54.1226 90.1073 54.41 90.8826 54.41C91.8853 54.41 92.4067 53.8092 92.4067 52.6991V45.947C92.4067 45.4377 92.019 45.0198 91.4575 45.0198Z" fill="black"/>
<path d="M99.505 46.9396L101.684 46.9919C102.192 47.0049 102.593 46.6262 102.593 46.0777C102.593 45.5291 102.192 45.1504 101.684 45.1504L95.3739 45.1373C94.8793 45.1373 94.4648 45.5161 94.4648 46.0646C94.4648 46.6131 94.8793 46.9919 95.3739 46.9788L97.5665 46.9396V53.4696C97.5665 53.979 97.9675 54.397 98.5291 54.397C99.1039 54.397 99.505 53.979 99.505 53.4696V46.9396Z" fill="black"/>
<path d="M105.965 54.2795H110.658C111.152 54.2795 111.553 53.9138 111.553 53.4044C111.553 52.8821 111.152 52.5164 110.658 52.5164L106.58 52.5294V50.3484H110.11C110.591 50.3484 110.979 49.9957 110.979 49.5126C110.979 49.0162 110.591 48.6636 110.11 48.6636L106.58 48.6898V46.8875H110.658C111.152 46.8875 111.553 46.5218 111.553 45.9994C111.553 45.477 111.152 45.1244 110.658 45.1244L105.979 45.1374C105.123 45.1374 104.642 45.6076 104.642 46.4435V52.9735C104.642 53.8093 105.123 54.2795 105.965 54.2795Z" fill="black"/>
<path d="M119.197 50.5573C120.467 50.2308 121.216 49.2644 121.216 47.9844C121.216 46.5609 120.267 45.1373 117.994 45.1373H115.053C114.197 45.1373 113.716 45.6075 113.716 46.4433V53.4696C113.716 53.979 114.117 54.397 114.705 54.397C115.28 54.397 115.694 53.979 115.694 53.4696L115.681 51.0143H117.299L118.943 53.9137C119.211 54.3578 119.772 54.5406 120.293 54.2794C120.815 54.0051 120.962 53.4566 120.681 53.0126L119.197 50.5573ZM115.681 46.8743H118.007C118.796 46.8743 119.291 47.3575 119.291 48.0758C119.291 48.7811 118.823 49.3035 118.034 49.3035H115.681V46.8743Z" fill="black"/>
<path d="M127.12 54.4492C129.072 54.4492 130.329 53.5873 130.757 52.1899C130.984 51.3932 130.503 50.8186 129.781 50.8186C129.34 50.8186 129.046 51.0405 128.872 51.5238C128.605 52.2552 127.949 52.7123 127.014 52.7123C125.53 52.7123 124.888 51.7327 124.888 49.6954C124.888 47.6972 125.543 46.7438 127.014 46.7438C127.936 46.7438 128.471 47.1226 128.805 47.9976C128.992 48.4939 129.3 48.7159 129.754 48.7159C130.449 48.7159 130.957 48.1674 130.744 47.4099C130.316 45.8688 129.072 45.0068 127.067 45.0068C124.313 45.0068 122.909 46.6524 122.909 49.6954C122.909 52.7645 124.313 54.4492 127.12 54.4492Z" fill="black"/>
<path d="M136.626 54.4232C139.46 54.4232 140.864 52.7253 140.864 49.6954C140.864 46.6393 139.42 44.9546 136.626 44.9546C133.819 44.9546 132.415 46.6655 132.401 49.6954C132.401 52.7383 133.832 54.4232 136.626 54.4232ZM136.626 52.6731C135.048 52.6731 134.367 51.6936 134.367 49.6954C134.367 47.6711 135.062 46.6916 136.613 46.6916C138.177 46.6916 138.912 47.6711 138.899 49.6954C138.899 51.7066 138.204 52.6731 136.626 52.6731Z" fill="black"/>
<path d="M153.309 46.6524C153.309 45.6207 152.654 45.0068 151.638 45.0068C150.809 45.0068 150.18 45.4509 149.873 46.4696L148.843 49.7476L148.162 52.1115L147.506 49.7476L146.41 46.4696C146.103 45.5162 145.568 45.0068 144.632 45.0068C143.603 45.0068 142.961 45.6076 142.961 46.6524V53.4697C142.961 53.9791 143.335 54.3971 143.883 54.3971C144.432 54.3971 144.806 53.9791 144.806 53.4697L144.793 50.1786L144.699 46.6524L145.755 50.257L146.878 53.4436C147.119 54.1489 147.573 54.384 148.162 54.384C148.71 54.384 149.151 54.188 149.378 53.4697L150.448 50.257L151.584 46.6263L151.477 50.1786V53.4697C151.477 53.9791 151.865 54.3971 152.4 54.3971C152.948 54.3971 153.322 53.9791 153.322 53.4697L153.309 46.6524Z" fill="black"/>
<path d="M66.1099 50.9294C66.1099 51.1471 66.0223 51.3558 65.8664 51.5097C65.7105 51.6635 65.4991 51.7501 65.2786 51.7501C65.0581 51.7501 64.8467 51.6635 64.6908 51.5097C64.5349 51.3558 64.4473 51.1471 64.4473 50.9294V43.5982C64.4473 43.3805 64.5349 43.1718 64.6908 43.0179C64.8467 42.864 65.0581 42.7776 65.2786 42.7776C65.4991 42.7776 65.7105 42.864 65.8664 43.0179C66.0223 43.1718 66.1099 43.3805 66.1099 43.5982V50.9294ZM65.8213 56.0091C65.7114 56.1176 62.62 58.6608 56.9523 58.6608C51.2847 58.6608 48.2138 56.1312 48.0833 56.0226C48.001 55.9542 47.9333 55.8703 47.8839 55.776C47.8345 55.6815 47.8045 55.5785 47.7956 55.4726C47.7866 55.3668 47.799 55.2603 47.8318 55.1591C47.8647 55.058 47.9175 54.9642 47.9871 54.8832C48.1306 54.7194 48.3339 54.6182 48.5526 54.6016C48.7714 54.5851 48.9879 54.6547 49.155 54.7951C49.2031 54.829 51.9648 57.0399 56.9454 57.0399C61.9261 57.0399 64.7084 54.8154 64.7359 54.7951C64.9048 54.6559 65.122 54.5872 65.3413 54.6037C65.5608 54.6202 65.765 54.7205 65.9106 54.8832C66.0507 55.0447 66.1207 55.2543 66.1053 55.4663C66.0899 55.6783 65.9903 55.8759 65.8282 56.0158L65.8213 56.0091ZM47.7879 43.5982C47.8003 43.3798 47.8998 43.1752 48.0645 43.0291C48.2293 42.883 48.446 42.8072 48.6672 42.8182C48.8723 42.8297 49.0658 42.9158 49.2104 43.0598C49.3551 43.2038 49.4405 43.3956 49.4504 43.5982V50.9159C49.4504 51.1335 49.3628 51.3422 49.2069 51.4961C49.051 51.6501 48.8396 51.7365 48.6191 51.7365C48.3987 51.7365 48.1872 51.6501 48.0313 51.4961C47.8755 51.3422 47.7879 51.1335 47.7879 50.9159V43.5982ZM51.9579 41.9705C51.9703 41.7522 52.0698 41.5476 52.2346 41.4014C52.3993 41.2553 52.616 41.1795 52.8372 41.1906C53.0423 41.2021 53.2358 41.2881 53.3804 41.4322C53.5251 41.5762 53.6106 41.768 53.6204 41.9705V52.8215C53.6204 53.0392 53.5328 53.248 53.3769 53.4018C53.221 53.5557 53.0096 53.6421 52.7892 53.6421C52.5687 53.6421 52.3573 53.5557 52.2014 53.4018C52.0455 53.248 51.9579 53.0392 51.9579 52.8215V41.9705ZM56.1485 41.5636C56.1485 41.346 56.2361 41.1372 56.392 40.9833C56.5479 40.8294 56.7593 40.743 56.9797 40.743C57.2002 40.743 57.4117 40.8294 57.5676 40.9833C57.7235 41.1372 57.811 41.346 57.811 41.5636V53.3641C57.811 53.5817 57.7235 53.7904 57.5676 53.9444C57.4117 54.0983 57.2002 54.1847 56.9797 54.1847C56.7593 54.1847 56.5479 54.0983 56.392 53.9444C56.2361 53.7904 56.1485 53.5817 56.1485 53.3641V41.5636ZM60.2705 41.9705C60.2705 41.7529 60.358 41.5441 60.5139 41.3902C60.6698 41.2364 60.8813 41.1499 61.1017 41.1499C61.3222 41.1499 61.5336 41.2364 61.6895 41.3902C61.8454 41.5441 61.933 41.7529 61.933 41.9705V52.8215C61.933 53.0392 61.8454 53.248 61.6895 53.4018C61.5336 53.5557 61.3222 53.6421 61.1017 53.6421C60.8813 53.6421 60.6698 53.5557 60.5139 53.4018C60.358 53.248 60.2705 53.0392 60.2705 52.8215V41.9705ZM66.3365 37.4945H47.5955C47.1872 37.4918 46.7823 37.5686 46.4041 37.7206C46.0258 37.8726 45.6817 38.0968 45.3913 38.3803C45.101 38.6638 44.8701 39.001 44.712 39.3727C44.5539 39.7444 44.4715 40.1432 44.4697 40.5463V58.8575C44.4715 59.2606 44.5539 59.6595 44.712 60.0312C44.8701 60.4027 45.101 60.74 45.3913 61.0235C45.6817 61.3069 46.0258 61.5312 46.4041 61.6831C46.7823 61.8352 47.1872 61.912 47.5955 61.9093H66.3365C66.7443 61.912 67.1487 61.8354 67.5264 61.6838C67.9042 61.5322 68.248 61.3087 68.5383 61.0258C68.8285 60.7431 69.0595 60.4067 69.2181 60.0358C69.3767 59.6649 69.4597 59.2668 69.4623 58.8643V40.5463C69.4605 40.1438 69.3784 39.7455 69.2207 39.3743C69.063 39.003 68.8328 38.6661 68.5431 38.3827C68.2535 38.0993 67.9102 37.875 67.5327 37.7226C67.1553 37.5702 66.7512 37.4927 66.3434 37.4945" fill="black"/>
</g>
<defs>
<clipPath id="clip0_10319_45276">
<rect width="108.996" height="24.415" fill="white" transform="translate(44.4697 37.4944)"/>
</clipPath>
</defs>
</svg>
