<svg width="198" height="100" viewBox="0 0 198 100" fill="none" xmlns="http://www.w3.org/2000/svg">
<g clip-path="url(#clip0_10319_45296)">
<path d="M72.432 39.7661H80.6363C80.6363 50.0205 79.8236 56.4056 74.5396 56.4056C73.1042 56.4056 72.0249 55.6708 71.227 54.6704C70.393 57.0599 69.0658 58.7658 66.9762 58.7658C62.1306 58.7658 61.5249 50.8142 61.4531 49.3232H69.2193C69.2193 49.9519 69.7223 52.7836 71.227 54.6704C73.1765 49.0855 72.432 39.7661 72.432 39.7661Z" fill="black"/>
<path d="M132.718 56.4094C131.655 56.4094 130.738 56.1902 129.967 55.752C129.195 55.3075 128.6 54.6814 128.183 53.8738C127.772 53.0661 127.566 52.1144 127.566 51.0187C127.566 49.9356 127.772 48.987 128.183 48.1731C128.594 47.3529 129.173 46.7143 129.919 46.2572C130.665 45.8002 131.545 45.5717 132.556 45.5717C133.208 45.5717 133.825 45.675 134.406 45.8816C134.995 46.0882 135.513 46.4075 135.962 46.8395C136.418 47.2715 136.775 47.8225 137.034 48.4924C137.294 49.1561 137.423 49.9481 137.423 50.8684V51.6386H128.733V49.9763H136.18L135.014 50.4646C135.014 49.8698 134.922 49.3533 134.738 48.915C134.555 48.4705 134.283 48.123 133.923 47.8726C133.562 47.6221 133.113 47.4969 132.575 47.4969C132.038 47.4969 131.579 47.6221 131.2 47.8726C130.82 48.123 130.533 48.4611 130.337 48.8868C130.14 49.3063 130.042 49.7759 130.042 50.2956V51.4507C130.042 52.0894 130.153 52.6372 130.375 53.0943C130.602 53.545 130.918 53.8894 131.323 54.1273C131.734 54.3652 132.212 54.4842 132.756 54.4842C133.11 54.4842 133.432 54.434 133.723 54.3339C134.021 54.2337 134.274 54.0835 134.482 53.8831C134.697 53.6765 134.862 53.4229 134.976 53.1224L137.309 53.3948C137.158 54.002 136.876 54.5342 136.465 54.9913C136.06 55.4421 135.539 55.7927 134.9 56.0431C134.267 56.2874 133.54 56.4094 132.718 56.4094Z" fill="black"/>
<path d="M123.944 56.2029V45.7032H126.439V56.2029H123.944ZM125.197 44.5376C124.798 44.5376 124.457 44.4062 124.172 44.1432C123.887 43.8802 123.745 43.5641 123.745 43.1946C123.745 42.819 123.887 42.4997 124.172 42.2367C124.457 41.9738 124.798 41.8423 125.197 41.8423C125.589 41.8423 125.927 41.9738 126.212 42.2367C126.496 42.4997 126.639 42.8159 126.639 43.1853C126.639 43.5609 126.496 43.8802 126.212 44.1432C125.927 44.4062 125.589 44.5376 125.197 44.5376Z" fill="black"/>
<path d="M107.609 56.2029V45.7033H109.991V47.497H110.123C110.345 46.896 110.712 46.4264 111.224 46.0883C111.736 45.744 112.343 45.5718 113.045 45.5718C113.766 45.5718 114.373 45.744 114.867 46.0883C115.36 46.4327 115.705 46.9022 115.901 47.497H116.015C116.255 46.9148 116.654 46.4483 117.21 46.0977C117.767 45.7471 118.431 45.5718 119.202 45.5718C120.176 45.5718 120.97 45.8786 121.584 46.4921C122.203 47.0995 122.513 47.9885 122.513 49.1593V56.2029H120.009V49.535C120.009 48.8901 119.832 48.4174 119.477 48.1169C119.13 47.8101 118.703 47.6567 118.197 47.6567C117.596 47.6567 117.128 47.8445 116.793 48.2202C116.457 48.5896 116.29 49.0654 116.29 49.6477V56.2029H113.823V49.4411C113.823 48.8964 113.662 48.4643 113.339 48.145C113.017 47.8195 112.59 47.6567 112.059 47.6567C111.698 47.6567 111.369 47.7475 111.072 47.929C110.775 48.1106 110.538 48.3642 110.361 48.6897C110.19 49.0153 110.104 49.391 110.104 49.8167V56.2029H107.609Z" fill="black"/>
<path d="M100.383 56.3907C99.554 56.3907 98.8109 56.181 98.1531 55.7615C97.4953 55.3358 96.9736 54.7191 96.5878 53.9114C96.2084 53.1038 96.0186 52.1239 96.0186 50.9719C96.0186 49.8011 96.2115 48.815 96.5972 48.0136C96.9894 47.2122 97.5175 46.6048 98.1816 46.1916C98.8456 45.7784 99.5857 45.5718 100.401 45.5718C101.021 45.5718 101.53 45.6751 101.929 45.8817C102.327 46.0883 102.644 46.3388 102.878 46.633C103.118 46.921 103.301 47.1902 103.428 47.4407H103.542V45.7033H106.027V56.2029H103.58V54.5407H103.428C103.301 54.7974 103.115 55.0697 102.868 55.3577C102.628 55.6394 102.305 55.8836 101.9 56.0902C101.502 56.2905 100.996 56.3907 100.383 56.3907ZM101.085 54.3622C101.622 54.3622 102.074 54.2214 102.441 53.9395C102.808 53.6516 103.089 53.254 103.285 52.7469C103.482 52.2335 103.58 51.6387 103.58 50.9625C103.58 50.28 103.485 49.6884 103.295 49.1875C103.105 48.6804 102.824 48.289 102.451 48.0136C102.077 47.7381 101.622 47.6003 101.085 47.6003C100.528 47.6003 100.063 47.7443 99.69 48.0323C99.3168 48.3204 99.0354 48.7179 98.8456 49.2251C98.6622 49.7322 98.5706 50.3113 98.5706 50.9625C98.5706 51.6137 98.6654 52.1959 98.8551 52.7093C99.0449 53.2227 99.3263 53.6266 99.6995 53.9208C100.079 54.215 100.541 54.3622 101.085 54.3622Z" fill="black"/>
<path d="M90.2651 56.3716C89.4172 56.3716 88.6412 56.2242 87.9367 55.9293C87.2389 55.628 86.6845 55.1792 86.2735 54.583C85.8626 53.9869 85.6572 53.2497 85.6572 52.3714V52.1502H88.2791V52.3714C88.2791 52.756 88.3607 53.0893 88.5237 53.3715C88.6933 53.6535 88.9281 53.8682 89.2282 54.0157C89.5282 54.1631 89.8738 54.2369 90.2651 54.2369C90.6891 54.2369 91.0478 54.1504 91.3413 53.9773C91.6414 53.8041 91.8664 53.5445 92.0165 53.1984C92.1729 52.8522 92.2512 52.4291 92.2512 51.9291V41.8516H94.8634V51.9291C94.8634 52.8522 94.6743 53.6471 94.296 54.3138C93.9242 54.9741 93.3926 55.4837 92.7013 55.8427C92.0165 56.1954 91.2044 56.3716 90.2651 56.3716Z" fill="black"/>
</g>
<defs>
<clipPath id="clip0_10319_45296">
<rect width="76.7329" height="20.0552" fill="white" transform="translate(61.0371 39.2385)"/>
</clipPath>
</defs>
</svg>
