<svg width="198" height="100" viewBox="0 0 198 100" fill="none" xmlns="http://www.w3.org/2000/svg">
<g clip-path="url(#clip0_10319_45349)">
<path d="M57.1748 37.936C63.455 37.9361 68.542 43.023 68.542 49.3032C68.5419 55.5834 63.455 60.6703 57.1748 60.6704C50.8946 60.6704 45.8077 55.5835 45.8076 49.3032C45.8076 43.0229 50.8945 37.936 57.1748 37.936ZM50.8242 49.3169C50.398 49.3169 50.0637 49.6937 50.1133 50.1128C50.5111 53.6578 53.5233 56.4212 57.1748 56.4214C60.8265 56.4214 63.8395 53.665 64.2373 50.1128C64.2869 49.6866 63.9525 49.3169 63.5264 49.3169H50.8242ZM57.1748 42.2124C56.1945 42.7807 55.5275 43.8395 55.5273 45.0542C55.5273 46.2689 56.1946 47.3276 57.1748 47.896C58.1552 47.3276 58.8232 46.269 58.8232 45.0542C58.8231 43.8395 58.1551 42.7807 57.1748 42.2124Z" fill="black"/>
<path d="M148.521 54.4307C147.722 54.4307 147.026 54.2617 146.431 53.9236C145.848 53.5753 145.397 53.0887 145.079 52.4637C144.772 51.8286 144.618 51.0909 144.618 50.2509C144.618 49.4723 144.777 48.7654 145.095 48.1302C145.412 47.4848 145.863 46.9777 146.447 46.6089C147.031 46.2401 147.712 46.0557 148.491 46.0557C149.3 46.0557 149.981 46.2401 150.534 46.6089C151.098 46.9674 151.523 47.4746 151.81 48.1302C152.097 48.7859 152.24 49.5491 152.24 50.4199V50.7119H146.063V49.4518H150.304C150.273 49.0522 150.181 48.709 150.027 48.4222C149.884 48.1353 149.679 47.9151 149.413 47.7614C149.146 47.5975 148.834 47.5155 148.475 47.5155C148.117 47.5155 147.804 47.5924 147.538 47.746C147.272 47.8997 147.051 48.1251 146.877 48.4222C146.713 48.709 146.611 49.0522 146.57 49.4518V50.7119C146.59 51.1831 146.677 51.5878 146.831 51.9259C146.985 52.2537 147.21 52.5098 147.507 52.6942C147.815 52.8786 148.183 52.9708 148.614 52.9708C149.075 52.9708 149.449 52.8786 149.735 52.6942C150.032 52.5098 150.227 52.264 150.319 51.9566H152.087C151.871 52.7557 151.457 53.3704 150.842 53.8007C150.237 54.2207 149.464 54.4307 148.521 54.4307Z" fill="black"/>
<path d="M139.909 54.4307C139.12 54.4307 138.433 54.2514 137.849 53.8929C137.265 53.5343 136.815 53.0426 136.497 52.4176C136.19 51.7825 136.036 51.0704 136.036 50.2816C136.036 49.4415 136.205 48.7039 136.543 48.0687C136.881 47.4336 137.353 46.9418 137.957 46.5935C138.561 46.2349 139.258 46.0557 140.047 46.0557C140.692 46.0557 141.266 46.1684 141.768 46.3937C142.27 46.6089 142.67 46.9213 142.967 47.3311C143.264 47.7307 143.438 48.2019 143.489 48.7449H141.584C141.512 48.3556 141.343 48.0636 141.077 47.869C140.82 47.6641 140.472 47.5616 140.032 47.5616C139.601 47.5616 139.232 47.6743 138.925 47.8997C138.628 48.1148 138.398 48.4222 138.234 48.8217C138.08 49.211 138.003 49.6669 138.003 50.1894C138.003 50.7221 138.08 51.1985 138.234 51.6185C138.387 52.0283 138.613 52.351 138.91 52.5867C139.207 52.812 139.571 52.9247 140.001 52.9247C140.452 52.9247 140.82 52.8018 141.107 52.5559C141.394 52.3101 141.568 51.9617 141.63 51.511H143.535C143.453 52.1154 143.254 52.6379 142.936 53.0784C142.618 53.5189 142.198 53.857 141.676 54.0926C141.164 54.318 140.575 54.4307 139.909 54.4307Z" fill="black"/>
<path d="M127.354 46.2708H129.259V47.3926H129.29C129.525 46.9623 129.848 46.6345 130.258 46.4091C130.678 46.1735 131.159 46.0557 131.702 46.0557C132.317 46.0557 132.829 46.1735 133.239 46.4091C133.649 46.6345 133.956 46.9777 134.161 47.4387C134.376 47.8895 134.484 48.4478 134.484 49.1137V54.2156H132.517V49.6977C132.517 48.9805 132.389 48.458 132.133 48.1302C131.887 47.7921 131.497 47.6231 130.965 47.6231C130.422 47.6231 130.012 47.7921 129.735 48.1302C129.459 48.4683 129.32 48.9908 129.32 49.6977V54.2156H127.354V46.2708Z" fill="black"/>
<path d="M121.151 54.4306C120.598 54.4306 120.117 54.3332 119.707 54.1386C119.297 53.9439 118.979 53.6622 118.754 53.2934C118.529 52.9144 118.416 52.4585 118.416 51.9257C118.416 51.3315 118.57 50.8449 118.877 50.4659C119.195 50.0868 119.645 49.8102 120.229 49.6361C120.824 49.4516 121.541 49.3594 122.381 49.3594H123.595V48.9906C123.595 48.6321 123.549 48.335 123.456 48.0993C123.364 47.8637 123.211 47.6844 122.995 47.5615C122.78 47.4283 122.493 47.3617 122.135 47.3617C121.674 47.3617 121.32 47.4488 121.075 47.623C120.829 47.7971 120.68 48.0481 120.629 48.376H118.708C118.749 47.8842 118.908 47.4642 119.184 47.1159C119.471 46.7573 119.866 46.4909 120.368 46.3168C120.88 46.1324 121.489 46.0402 122.196 46.0402C122.954 46.0402 123.579 46.1529 124.071 46.3782C124.563 46.5934 124.932 46.9263 125.178 47.3771C125.423 47.8279 125.546 48.4067 125.546 49.1136V54.2154H123.794L123.672 53.1551H123.641C123.518 53.3907 123.344 53.6059 123.118 53.8005C122.893 53.9849 122.611 54.1335 122.273 54.2462C121.945 54.3691 121.571 54.4306 121.151 54.4306ZM121.735 53.0014C122.094 53.0014 122.411 52.9297 122.688 52.7863C122.975 52.6326 123.195 52.4124 123.349 52.1255C123.513 51.8387 123.595 51.4955 123.595 51.0959V50.512H122.657C122.176 50.512 121.766 50.553 121.428 50.6349C121.1 50.7169 120.844 50.8552 120.66 51.0498C120.485 51.2342 120.398 51.4852 120.398 51.8028C120.398 52.0692 120.455 52.2946 120.567 52.479C120.68 52.6531 120.834 52.7863 121.028 52.8785C121.233 52.9605 121.469 53.0014 121.735 53.0014Z" fill="black"/>
<path d="M109.811 46.2708H111.716V47.3926H111.747C111.982 46.9623 112.305 46.6345 112.715 46.4091C113.135 46.1735 113.616 46.0557 114.159 46.0557C114.774 46.0557 115.286 46.1735 115.696 46.4091C116.106 46.6345 116.413 46.9777 116.618 47.4387C116.833 47.8895 116.941 48.4478 116.941 49.1137V54.2156H114.974V49.6977C114.974 48.9805 114.846 48.458 114.59 48.1302C114.344 47.7921 113.955 47.6231 113.422 47.6231C112.879 47.6231 112.469 47.7921 112.192 48.1302C111.916 48.4683 111.778 48.9908 111.778 49.6977V54.2156H109.811V46.2708Z" fill="black"/>
<path d="M105.955 46.2707H107.922V54.2155H105.955V46.2707ZM106.938 45.1643C106.713 45.1643 106.508 45.1182 106.324 45.026C106.15 44.9235 106.011 44.7903 105.909 44.6264C105.817 44.4523 105.771 44.2627 105.771 44.0578C105.771 43.8427 105.817 43.6532 105.909 43.4892C106.011 43.3151 106.15 43.1819 106.324 43.0897C106.508 42.9873 106.713 42.936 106.938 42.936C107.164 42.936 107.364 42.9873 107.538 43.0897C107.712 43.1819 107.85 43.3151 107.953 43.4892C108.055 43.6532 108.106 43.8427 108.106 44.0578C108.106 44.273 108.055 44.4676 107.953 44.6418C107.85 44.8057 107.712 44.9338 107.538 45.026C107.364 45.1182 107.164 45.1643 106.938 45.1643Z" fill="black"/>
<path d="M97.1797 43.5968H104.602V45.4255H99.3464V48.0071H103.91V49.7129H99.3464V54.2154H97.1797V43.5968Z" fill="black"/>
<path d="M91.4825 54.4307C90.6732 54.4307 89.9714 54.2565 89.3772 53.9082C88.7831 53.5497 88.3272 53.0528 88.0096 52.4176C87.692 51.7825 87.5332 51.0602 87.5332 50.2509C87.5332 49.4313 87.692 48.7039 88.0096 48.0687C88.3272 47.4336 88.7831 46.9418 89.3772 46.5935C89.9817 46.2349 90.6834 46.0557 91.4825 46.0557C92.2816 46.0557 92.9783 46.2349 93.5725 46.5935C94.1769 46.9521 94.6379 47.4489 94.9555 48.0841C95.2731 48.709 95.4319 49.4313 95.4319 50.2509C95.4319 51.0704 95.268 51.7978 94.9401 52.433C94.6123 53.0579 94.1513 53.5497 93.5571 53.9082C92.9629 54.2565 92.2714 54.4307 91.4825 54.4307ZM91.4825 52.9247C91.9128 52.9247 92.2765 52.812 92.5736 52.5867C92.8707 52.3613 93.091 52.0488 93.2344 51.6493C93.3881 51.2497 93.4649 50.7836 93.4649 50.2509C93.4649 49.7489 93.3932 49.2981 93.2497 48.8986C93.1166 48.4888 92.9014 48.1661 92.6043 47.9304C92.3072 47.6846 91.9282 47.5616 91.4672 47.5616C91.0574 47.5616 90.7039 47.6743 90.4068 47.8997C90.1097 48.1148 89.8844 48.4273 89.7307 48.8371C89.577 49.2366 89.5002 49.7079 89.5002 50.2509C89.5002 50.7938 89.577 51.2651 89.7307 51.6646C89.8844 52.0642 90.1097 52.3766 90.4068 52.602C90.7039 52.8172 91.0625 52.9247 91.4825 52.9247Z" fill="black"/>
<path d="M83.9696 46.2707H85.9365V54.2155H83.9696V46.2707ZM84.9531 45.1643C84.7277 45.1643 84.5228 45.1182 84.3384 45.026C84.1642 44.9235 84.0259 44.7903 83.9235 44.6264C83.8313 44.4523 83.7852 44.2627 83.7852 44.0578C83.7852 43.8427 83.8313 43.6532 83.9235 43.4892C84.0259 43.3151 84.1642 43.1819 84.3384 43.0897C84.5228 42.9873 84.7277 42.936 84.9531 42.936C85.1784 42.936 85.3782 42.9873 85.5524 43.0897C85.7265 43.1819 85.8648 43.3151 85.9673 43.4892C86.0697 43.6532 86.1209 43.8427 86.1209 44.0578C86.1209 44.273 86.0697 44.4676 85.9673 44.6418C85.8648 44.8057 85.7265 44.9338 85.5524 45.026C85.3782 45.1182 85.1784 45.1643 84.9531 45.1643Z" fill="black"/>
<path d="M78.3778 54.4613C77.6504 54.4613 77.0306 54.3332 76.5184 54.0771C76.0061 53.8108 75.6117 53.4317 75.3351 52.94C75.0687 52.438 74.9355 51.8387 74.9355 51.142V50.9576H76.9025C76.9025 51.5518 77.0152 51.9872 77.2406 52.2638C77.466 52.5302 77.8348 52.6634 78.347 52.6634C78.7056 52.6634 78.9822 52.5917 79.1769 52.4482C79.3817 52.2946 79.5201 52.0845 79.5918 51.8182C79.6737 51.5518 79.7147 51.2189 79.7147 50.8193V43.5968H81.8815V50.9115C81.8815 51.6901 81.7534 52.3458 81.4973 52.8785C81.2412 53.401 80.8519 53.7954 80.3294 54.0618C79.8171 54.3281 79.1666 54.4613 78.3778 54.4613Z" fill="black"/>
</g>
<defs>
<clipPath id="clip0_10319_45349">
<rect width="108" height="23" fill="white" transform="translate(44.9355 37.7527)"/>
</clipPath>
</defs>
</svg>
