<svg width="198" height="100" viewBox="0 0 198 100" fill="none" xmlns="http://www.w3.org/2000/svg">
<path d="M71.0918 47.2302C73.4487 44.7449 76.383 44.1736 79.3818 45.9695C80.7972 46.9386 81.7848 48.1586 82.1455 49.8562C82.361 52.4509 82.4925 55.1238 80.8672 57.2839C79.9096 58.3505 78.8272 58.8705 77.5039 59.3718L77.0391 59.6042C75.2022 59.8456 73.6216 59.3499 72.1025 58.3171C70.6746 57.1593 69.8897 55.8527 69.6123 54.0339C69.4727 51.5097 69.394 49.2537 71.0918 47.2302ZM87.7881 45.2429C89.6238 44.6829 91.2615 44.8438 93.002 45.6326C94.3852 46.3764 95.1515 47.294 95.8389 48.6951V49.1589C95.2489 49.1779 94.6595 49.192 94.0693 49.2029C93.904 49.2087 93.7387 49.2145 93.5684 49.2205C92.4269 49.2362 91.7546 49.0115 90.7334 48.4626C89.6868 48.3681 88.8537 48.5664 87.9629 49.116C87.051 50.0831 86.9516 50.824 86.9473 52.1472C86.9434 52.4242 86.9396 52.7016 86.9355 52.9871C87.0549 54.1394 87.4437 54.8981 88.2236 55.7449C89.0718 56.2349 89.7876 56.2758 90.7334 56.1218C91.7031 55.7559 92.2903 55.3937 92.8223 54.4978C92.8988 54.2681 92.9748 54.0381 93.0537 53.8015H90.0371V51.2478H96.0713C96.2609 56.0266 96.2605 56.0272 94.5723 57.8875C93.2794 59.0506 91.9952 59.4879 90.2832 59.4587C90.1261 59.4614 89.9685 59.4638 89.8066 59.4666C87.9593 59.4558 86.6721 58.7175 85.3477 57.5085C83.6615 55.6575 83.6324 53.4158 83.6768 51.0447C83.7678 49.276 84.3593 47.88 85.6113 46.6179C86.064 46.2535 86.5129 45.9616 87.0195 45.6785C87.2731 45.5349 87.5268 45.3908 87.7881 45.2429ZM109.068 48.2312H101.177V50.7839H107.212V53.8015H101.177V59.3718H98.1602V45.2136H109.068V48.2312ZM113.942 59.3718H110.925V45.2136H113.942V59.3718ZM139.937 48.2312H131.813V50.7839H137.848V53.8015H134.83V56.3542H139.937V59.3718H131.813V53.8015H129.028V45.2136H139.937V48.2312ZM61.9541 53.3367H64.9707V56.3542H68.916V59.1394H61.9541V56.3542H58.9365V45.2136H61.9541V53.3367ZM122.982 45.1355C124.456 45.1347 125.346 45.5347 126.445 46.491C127.098 47.3379 127.087 48.1923 127.039 49.2302C126.889 50.1732 126.581 50.7146 126.011 51.4802C125.315 51.9443 125.314 51.9451 124.618 51.9451V52.4089C124.934 52.4305 124.934 52.4309 125.256 52.4529C126.01 52.6414 126.011 52.6406 126.519 53.0613C127.161 54.192 127.038 55.2671 126.997 56.5427L126.984 57.2986C126.973 57.9122 126.956 58.526 126.938 59.1394H124.153V53.8015H119.048V59.1394H116.263V45.2136C118.23 45.1921 118.23 45.1926 120.237 45.1707C120.649 45.1643 121.061 45.1577 121.484 45.1511C121.814 45.1491 122.143 45.1477 122.473 45.1462C122.641 45.1427 122.809 45.1392 122.982 45.1355ZM77.3145 48.5076C75.6923 47.9032 74.3916 48.1444 73.2676 49.45C72.3177 50.7575 72.4367 52.2543 72.6289 53.8015C72.9993 55.0001 73.6235 55.7412 74.7178 56.3542C75.9521 56.568 76.8096 56.4424 77.8369 55.7312C78.7313 54.9241 79.0937 54.1741 79.2041 52.9714C79.1979 52.6819 79.1915 52.4 79.1855 52.1189C79.1789 51.5966 79.1627 51.0737 79.1279 50.5525C78.6819 49.6603 78.1544 49.049 77.3145 48.5076ZM122.657 48.1628C122.356 48.1663 122.356 48.1663 122.062 48.1697C121.851 48.1757 121.646 48.1814 121.441 48.1873C120.721 48.1982 120.001 48.2124 119.28 48.2312V50.7839C119.791 50.7972 120.302 50.8099 120.813 50.8181C121.027 50.8214 121.234 50.8247 121.441 50.8279C121.754 50.8368 121.755 50.8367 122.062 50.8455C122.264 50.8478 122.461 50.8501 122.657 50.8523C122.844 50.8561 123.025 50.8594 123.206 50.863C123.816 50.7634 124.017 50.5743 124.387 50.0876C124.474 49.5078 124.474 49.5073 124.387 48.9275C124.017 48.4408 123.816 48.2518 123.206 48.1521C122.929 48.1577 122.929 48.1574 122.657 48.1628ZM112.317 39.6433C113.206 40.0053 113.794 40.5341 114.406 41.2683C114.334 42.0211 114.042 42.4342 113.521 42.9656C113.405 43.089 113.289 43.2124 113.169 43.3396C112.782 43.5889 112.782 43.589 112.318 43.5564C111.785 43.3277 111.495 43.0684 111.1 42.6462C110.918 42.4555 110.917 42.456 110.732 42.2615C110.643 42.1637 110.553 42.0654 110.461 41.9646C110.844 40.9684 111.56 40.3676 112.317 39.6433Z" fill="black"/>
</svg>
