<svg width="198" height="100" viewBox="0 0 198 100" fill="none" xmlns="http://www.w3.org/2000/svg">
<path d="M123.582 26.2839C123.755 26.305 123.755 26.3053 123.925 26.4753C123.996 27.1575 123.739 27.7673 123.477 28.3865C123.236 28.9603 123.004 29.5379 122.776 30.1169C122.756 30.169 122.735 30.2215 122.714 30.2751C122.444 30.9604 122.19 31.6462 121.966 32.3474C121.867 32.6489 121.753 32.9414 121.631 33.2341C121.564 33.3999 121.502 33.5675 121.442 33.7361C121.407 33.8348 121.372 33.9342 121.336 34.0359C121.304 34.1268 121.273 34.2176 121.24 34.3113C121.097 34.5969 120.96 34.7257 120.692 34.8972C120.34 34.9541 120.145 34.9779 119.839 34.7908C119.525 34.5324 119.354 34.3565 119.312 33.9343C119.297 33.3175 119.418 32.84 119.646 32.2703C119.676 32.1895 119.707 32.1083 119.738 32.0251C119.828 31.7909 119.92 31.5574 120.012 31.324C120.059 31.2018 120.105 31.0791 120.151 30.9568C120.245 30.7101 120.341 30.4642 120.438 30.2185C120.401 30.2484 120.364 30.2785 120.326 30.3093C119.115 31.2947 119.115 31.2941 118.624 31.6853C117.919 32.2486 117.225 32.8233 116.541 33.4128C116.238 33.6735 115.931 33.9288 115.62 34.1794C115.241 34.4868 114.881 34.8119 114.524 35.1443C114.241 35.4066 113.949 35.6541 113.648 35.8962C113.33 36.1528 113.036 36.418 112.752 36.7117C112.553 36.9118 112.34 37.0937 112.126 37.2781C111.891 37.4838 111.66 37.6945 111.431 37.906C111.122 38.1898 110.813 38.4725 110.501 38.7517C110.434 38.8144 110.366 38.8766 110.297 38.9412C110.111 39.1042 109.928 39.2463 109.729 39.3904C109.206 39.7889 108.786 40.1374 108.673 40.8113C108.629 41.2496 108.623 41.6884 108.62 42.1287C108.611 42.5054 108.561 42.8721 108.502 43.2439C108.491 43.3122 108.481 43.3805 108.47 43.4509C107.98 46.4432 107.011 49.6078 105.711 52.3445C105.597 52.5884 105.488 52.8348 105.379 53.0808C104.619 54.789 103.808 56.4532 102.869 58.071C102.752 58.2734 102.638 58.4772 102.524 58.6814C102.491 58.7413 102.458 58.8013 102.424 58.863C102.338 59.0185 102.251 59.1743 102.165 59.3298C100.865 61.6045 99.2948 63.7825 97.6064 65.782C97.4836 65.9284 97.3632 66.0766 97.2432 66.2253C96.6646 66.9327 96.0248 67.5791 95.3809 68.2263C95.3131 68.2947 95.3123 68.2942 95.2432 68.364C94.6533 68.9584 94.0482 69.5124 93.3867 70.0281C93.3008 70.0953 93.3005 70.0952 93.2129 70.1638C91.5935 71.4129 89.7585 72.5155 87.666 72.532C87.5887 72.5328 87.5113 72.534 87.4316 72.5349C86.4649 72.5225 85.6845 72.2328 84.9707 71.5779C84.1431 70.7056 83.8976 69.5848 83.918 68.4148C83.9893 67.2328 84.3245 66.0896 84.7949 65.0095C84.8213 64.9483 84.8478 64.887 84.875 64.824C85.6668 63.0141 86.7401 61.3583 87.8574 59.7351C87.9146 59.6518 87.9152 59.6521 87.9736 59.5671C88.5374 58.7513 89.1478 57.9721 89.7598 57.1921C89.9208 56.9857 90.08 56.7776 90.2383 56.5691C90.6295 56.0544 91.0388 55.559 91.459 55.0681C91.6698 54.8215 91.8751 54.5704 92.0791 54.3181C92.3827 53.9448 92.7001 53.5875 93.0244 53.2322C93.2269 53.0042 93.4192 52.7695 93.6104 52.532C93.871 52.2098 94.1401 51.9118 94.4375 51.6238C94.5786 51.4833 94.7082 51.3373 94.8379 51.1863C95.2768 50.6781 95.7406 50.1922 96.2002 49.7029C96.362 49.5303 96.5226 49.3567 96.6836 49.1833C97.3858 48.4296 98.1041 47.6945 98.8379 46.9714C99.2007 46.6125 99.5483 46.2482 99.8809 45.8611C100.113 45.596 100.362 45.3478 100.612 45.0994C100.661 45.0507 100.709 45.002 100.759 44.9519C101.007 44.7041 101.26 44.4659 101.526 44.238C102.014 43.8162 102.461 43.351 102.914 42.8923C103.932 41.8615 103.932 41.8612 104.473 41.4001C104.676 41.2238 104.863 41.0333 105.051 40.8406C105.275 40.6105 105.48 40.4163 105.744 40.2312C106.005 40.0161 106.005 40.0153 106.035 39.6775C106.035 39.5531 106.031 39.4287 106.024 39.3044C106.021 39.204 106.022 39.2036 106.019 39.1013C105.949 37.4242 105.591 35.3628 104.36 34.1316C103.819 33.7475 103.239 33.536 102.574 33.6208C100.588 34.0371 98.9703 35.6756 97.7549 37.2175C97.672 37.3224 97.5885 37.4277 97.5049 37.532C96.781 38.4345 96.1189 39.3548 95.5137 40.3406C95.4658 40.4181 95.4175 40.4961 95.3682 40.5759C93.7502 43.2024 92.276 45.9473 91.1475 48.823C90.9486 49.3164 90.7496 49.7831 90.3242 50.1228C89.8921 50.2508 89.4954 50.175 89.0967 49.9792C88.7378 49.6554 88.4709 49.382 88.4385 48.8826C88.4342 48.1922 88.5036 47.5249 88.5986 46.8425C88.9258 44.4449 89.2839 41.3367 87.8965 39.2029C87.4885 38.6992 87.0543 38.5081 86.4219 38.4265C85.3419 38.4462 84.4881 39.2839 83.7744 40.0007C83.7197 40.0514 83.6647 40.1019 83.6084 40.1541C81.9941 41.6668 80.9082 43.8858 79.9521 45.8542C79.8568 46.0497 79.76 46.2445 79.6631 46.4392C78.6354 48.525 77.8381 50.7256 77.1445 52.9431C77.1184 53.0253 77.0923 53.1075 77.0654 53.1921C77.017 53.3455 76.9705 53.4999 76.9248 53.6541C76.7938 54.0683 76.6842 54.3211 76.2891 54.5466C75.8795 54.6532 75.5182 54.5746 75.1562 54.366C74.7769 54.0911 74.5437 53.8611 74.4648 53.3796C74.3947 52.1011 74.8922 50.7879 75.3535 49.613C75.3991 49.4892 75.444 49.365 75.4893 49.241C76.4543 46.6179 77.649 44.0446 79.1807 41.7019C79.2476 41.5993 79.2482 41.5994 79.3164 41.4949C79.8465 40.6882 80.3827 39.9317 81.0527 39.2351C81.1526 39.1205 81.252 39.0051 81.3506 38.8894C82.5236 37.5565 84.0653 36.2311 85.9092 36.072C87.2072 35.9934 88.2542 36.2362 89.248 37.114C89.9757 37.8101 90.4032 38.5493 90.75 39.49C90.796 39.6127 90.7959 39.6131 90.8428 39.738C91.1357 40.5957 91.2354 41.4869 91.3457 42.3826C91.3704 42.3357 91.3945 42.2883 91.4199 42.24C92.7329 39.7589 94.2547 37.3404 96.1709 35.2761C96.3423 35.0909 96.5085 34.9022 96.6729 34.7107C97.5507 33.7063 98.5743 32.9086 99.6816 32.1746C99.7532 32.1263 99.8247 32.0778 99.8984 32.0281C101.186 31.2025 102.813 30.8996 104.315 31.2253C105.599 31.5633 106.571 32.4045 107.269 33.5203C107.35 33.666 107.43 33.8127 107.508 33.9607C107.572 34.0822 107.571 34.0828 107.637 34.2068C108.162 35.2701 108.503 36.4288 108.528 37.6189C108.569 37.5821 108.61 37.5454 108.652 37.5076C108.733 37.4365 108.733 37.4364 108.815 37.364C108.869 37.3167 108.922 37.2692 108.977 37.2205C109.123 37.1088 109.124 37.1082 109.294 37.1082V36.9382C109.413 36.8184 109.413 36.818 109.581 36.6775C109.853 36.4465 110.12 36.2113 110.384 35.9705C110.753 35.6373 111.134 35.3233 111.521 35.0115C111.862 34.727 112.185 34.4245 112.508 34.1199C112.696 33.9609 112.696 33.9607 112.866 33.9607V33.7908C113.01 33.6612 113.011 33.6612 113.218 33.5037C113.585 33.2176 113.94 32.9212 114.291 32.616C114.737 32.2304 115.193 31.8618 115.658 31.5007C115.997 31.2373 116.326 30.9652 116.651 30.6863C117.572 29.8989 118.54 29.1688 119.502 28.4324C119.407 28.4385 119.312 28.4446 119.214 28.4509C118.437 28.4984 117.659 28.5311 116.881 28.5437C116.763 28.5475 116.763 28.5477 116.643 28.5515C116.16 28.5558 115.885 28.5016 115.504 28.1765C115.169 27.806 115.105 27.4947 115.124 27.0095C115.163 26.8158 115.164 26.8154 115.36 26.5974C115.731 26.3994 116.017 26.375 116.433 26.363C116.493 26.3613 116.555 26.36 116.617 26.3582C116.822 26.3524 117.027 26.3474 117.231 26.3425C117.302 26.3408 117.373 26.3394 117.445 26.3376C118.744 26.3064 120.044 26.2945 121.343 26.2908C121.551 26.2901 121.759 26.289 121.968 26.2878C122.262 26.2863 122.556 26.2859 122.85 26.2859C122.939 26.2853 123.028 26.2846 123.12 26.2839C123.242 26.2843 123.242 26.2845 123.366 26.2849C123.437 26.2848 123.509 26.2841 123.582 26.2839ZM105.892 43.1482C105.722 43.1482 105.721 43.1482 105.55 43.2986C105.477 43.3711 105.407 43.442 105.337 43.5125C105.213 43.6359 105.089 43.7594 104.966 43.8835C104.877 43.9729 104.788 44.062 104.699 44.1511C104.513 44.3371 104.327 44.5233 104.142 44.7097C103.901 44.9518 103.66 45.194 103.419 45.4353C103.231 45.6233 103.042 45.8114 102.854 45.9998C102.764 46.0902 102.674 46.1808 102.584 46.2712C102.146 46.7094 101.707 47.1455 101.3 47.613C101.038 47.922 100.755 48.2044 100.464 48.4861C100.222 48.719 99.9887 48.9287 99.8193 49.2205C99.8016 49.2669 99.7838 49.3121 99.7666 49.3572C99.5969 49.3572 99.5964 49.3574 99.458 49.4949C99.4021 49.5602 99.3482 49.6239 99.2939 49.6873C99.2312 49.7596 99.1703 49.8299 99.1094 49.9001C98.9855 50.0435 98.8604 50.1864 98.7344 50.3279C98.6716 50.3975 98.6107 50.4654 98.5498 50.533C98.2627 50.8517 97.9728 51.1682 97.6826 51.4841C97.3991 51.7927 97.1175 52.1028 96.8379 52.4148C96.6697 52.6025 96.5006 52.7896 96.3291 52.9744C95.8914 53.443 95.4556 53.9093 95.0518 54.408C94.7958 54.7269 94.533 55.0389 94.2637 55.3464C93.8605 55.8064 93.4654 56.2697 93.0898 56.7527C92.8499 57.0625 92.6085 57.371 92.3594 57.6736C91.3448 58.9044 90.3994 60.1859 89.5107 61.5105C89.4495 61.6019 89.4497 61.6026 89.3896 61.6921C88.4222 63.1247 87.5452 64.5953 86.9023 66.2048C86.8803 66.261 86.8583 66.3163 86.8369 66.3708C86.5786 67.0197 86.3923 67.6362 86.3672 68.3386C86.3663 68.407 86.3651 68.4735 86.3643 68.5398C86.363 68.6035 86.3616 68.6654 86.3604 68.7273C86.3712 69.2969 86.5612 69.7524 86.9648 70.156C87.4066 70.3453 87.8097 70.3237 88.2832 70.283C91.1279 69.9088 93.6545 66.8155 95.3379 64.7195C95.3976 64.6445 95.4557 64.5716 95.5137 64.4988C96.3696 63.4485 97.1764 62.3643 97.9365 61.2429C98.0077 61.1374 98.0791 61.032 98.1504 60.9265C98.5941 60.2777 99.0135 59.6161 99.4209 58.9441C99.5946 58.6572 99.7693 58.3713 99.9482 58.0876C100.361 57.4336 100.724 56.7593 101.079 56.073C101.187 55.8653 101.295 55.6581 101.405 55.4519C101.9 54.5351 102.358 53.609 102.781 52.657C102.891 52.4086 103.002 52.1601 103.114 51.9128C104.4 49.0987 105.345 46.1952 105.892 43.1482Z" fill="black"/>
</svg>
