<svg width="198" height="100" viewBox="0 0 198 100" fill="none" xmlns="http://www.w3.org/2000/svg">
<path d="M99.6583 44.9502C100.835 43.7738 102.011 43.3542 103.48 43.3542C106.252 43.3542 107.848 44.9502 107.848 48.1646V55.605H104.506V48.7341C104.506 46.9882 103.937 46.0891 102.76 46.0891C101.734 46.0891 101.164 46.5087 100.115 47.5427V55.59H96.7736V45.7969C96.6237 45.7969 95.7471 45.647 95.7471 45.647V43.7588L99.4186 43.609C99.516 43.6315 99.6583 44.4781 99.6583 44.9502ZM128.753 46.0891C127.854 46.0891 127.007 46.5087 125.981 47.6851V52.8102C126.4 52.96 127.157 53.2298 127.869 53.2298C130.222 53.2298 130.641 51.3416 130.641 49.5583C130.791 47.2655 130.222 46.0891 128.753 46.0891ZM126.131 39.0758V44.643C127.157 43.7438 128.154 43.3242 129.472 43.3242C132.395 43.3242 134.283 45.5496 134.283 49.1687C134.283 53.4096 131.93 55.9122 127.839 55.9122C126.385 55.9122 124.497 55.635 122.841 55.1554C122.841 55.1554 122.841 41.5484 122.841 41.2712C122.691 41.2712 121.665 41.1213 121.665 41.1213V39.2332L126.131 39.0758ZM110.478 44.051C111.797 43.6314 113.4 43.2943 114.846 43.2943C118.188 43.2943 119.971 44.7479 119.971 47.5352V53.522C120.249 53.522 121.148 53.6719 121.148 53.6719V55.56L117.476 55.7099C117.476 55.7099 117.326 55.1404 117.326 54.8108C116.3 55.7099 115.101 56.1295 113.797 56.1295C111.152 56.1295 109.556 54.6759 109.556 52.3082C109.556 49.6632 111.579 48.3594 115.543 48.3594H116.72V47.9398C116.72 46.6211 116.442 46.0516 114.494 46.0516C113.468 46.0516 112.141 46.3289 111.152 46.8084H110.875L110.306 44.3133L110.478 44.051ZM112.793 52.1208C112.793 53.02 113.363 53.5744 114.389 53.5744C115.288 53.5744 115.843 53.2972 116.742 52.5479V50.6597H115.566C113.123 50.5174 112.793 51.3641 112.793 52.1208Z" fill="black"/>
<path d="M83.1283 36.9104L78.7375 42.1854L72.6234 39.2632C72.4735 39.2632 72.3461 39.1133 72.2038 39.2632C72.0539 39.2632 72.0539 39.413 72.2038 39.6828L73.6199 46.4263L67.5058 49.3485C67.3559 49.3485 67.2285 49.4984 67.2285 49.6258C67.2285 49.7531 67.3784 49.903 67.5058 49.903L73.6199 52.9676L72.1663 59.7111C72.1663 59.861 72.1663 59.9884 72.1663 60.1307C72.1663 60.1307 72.4435 60.1307 72.5859 60.1307L78.7 57.2085L82.941 62.6258C83.0909 62.7757 83.2182 62.9031 83.3606 62.7757C83.5104 62.7757 83.5105 62.6258 83.6378 62.4985L85.2338 55.9048H92.1572C92.307 55.9048 92.4344 55.9048 92.5768 55.7549C92.5768 55.605 92.5768 55.4777 92.4269 55.3353L88.201 49.8955L92.6292 44.4782C92.7791 44.3283 92.7791 44.201 92.7791 44.0586C92.7791 43.9162 92.6292 43.9087 92.3595 43.9087H90.6137C90.4638 43.9087 90.3364 43.9087 90.3364 44.0586L83.8326 50.9295H83.6828C83.6828 50.9295 83.6828 50.9295 83.6828 50.7797C83.8326 50.6298 87.3543 46.2615 89.25 44.0361V43.8863C89.25 43.7364 89.25 43.7364 89.1001 43.7364H86.8747C86.7249 43.7364 86.4551 43.8863 86.4551 44.0136C85.4286 45.19 80.1387 50.7572 80.0113 50.7572H79.9214C79.9214 50.7572 79.9214 50.7572 79.9214 50.6073L85.3387 44.0136C85.4886 43.8638 85.4886 43.7364 85.4886 43.594C85.4886 43.594 84.0349 37.0003 84.0349 36.8505C84.0349 36.7006 83.8851 36.5732 83.7577 36.5732C83.2557 36.7606 83.1283 36.7606 83.1283 36.9104Z" fill="black"/>
<path d="M71.5744 50.3153C69.9784 50.3153 68.5098 50.0381 67.2061 49.4162C67.2061 49.4162 67.3559 49.4162 67.3559 49.2663L73.4701 46.3441L72.0165 39.6006C72.0165 39.4507 72.0165 39.3233 72.0165 39.181C72.0165 39.181 72.2937 39.181 72.4361 39.181L78.5502 42.1032L82.9185 36.8282C83.0684 36.6783 83.1958 36.6783 83.1958 36.6783C83.1958 37.2478 83.3456 37.7049 83.3456 38.2743C83.5554 44.9504 78.1306 50.3153 71.5744 50.3153ZM88.2534 44.4784C88.4033 44.3285 88.5307 44.0588 88.673 43.9089H86.65C86.5001 43.9089 86.3727 44.0588 86.2304 44.0588C86.2304 44.336 86.2304 44.8156 86.5076 44.9579C86.7998 45.3775 87.6465 45.1003 88.2534 44.4784ZM90.2765 43.7816C90.1266 43.7816 89.9993 43.7816 89.9993 43.9314L89.8494 44.0813C89.8494 44.3585 89.9993 44.5009 90.1266 44.6507C90.5462 45.0703 91.4454 44.8006 91.8725 44.2311C92.0223 44.0813 92.0223 43.9539 92.1497 43.8115H91.9999H90.2765C90.2765 43.9239 90.2765 43.7816 90.2765 43.7816Z" fill="black"/>
<path d="M91.4678 44.3507C91.4678 44.3507 90.5687 44.3507 90.2915 44.3507C90.0142 44.3507 89.8719 44.5006 89.722 44.6279C87.4966 46.9807 83.8776 50.7421 83.7352 50.7421C83.3156 51.1617 82.9784 50.8919 83.458 50.4649C83.6078 50.315 86.5226 46.7934 88.2684 44.6204C88.2684 44.4706 88.4182 44.3432 88.2684 44.3432C88.1185 44.3432 86.6724 44.3432 86.5226 44.3432C86.3727 44.3432 86.2453 44.3432 86.103 44.4931C83.8776 46.8458 80.1162 50.8095 79.9888 50.8095C79.5692 51.2291 79.232 50.9594 79.7116 50.5323C79.8614 50.3824 83.0534 46.4337 84.7093 44.2158C84.8591 44.066 84.8591 43.9386 84.8591 43.6464L83.443 37.7495C83.443 37.5997 83.2931 37.4723 83.1658 37.7495L79.1646 42.5449C79.0147 42.6948 78.745 42.8222 78.5951 42.6948L73.028 39.9224C72.8781 39.9224 72.7507 39.9224 72.7507 40.0723L74.0695 46.1864C74.0695 46.3363 74.0695 46.606 73.7922 46.7559L68.1876 49.4908C68.0377 49.4908 68.0377 49.768 68.1876 49.768L73.7548 52.5404C73.9046 52.5404 74.032 52.8176 74.032 53.1098L72.5784 59.1341C72.5784 59.2839 72.5784 59.4113 72.8556 59.2839L78.5502 56.639C78.7 56.639 78.9698 56.639 79.1196 56.7888L82.941 61.5992C83.0908 61.7491 83.2182 61.7491 83.2182 61.5992L84.6718 55.6124C84.6718 55.4626 84.9491 55.3352 85.0914 55.3352H91.2056C91.3554 55.3352 91.4828 55.1853 91.3554 55.058L87.5341 50.0602C87.3842 49.9104 87.3842 49.6406 87.5341 49.4908L91.4828 44.6804C91.7451 44.4781 91.5952 44.3507 91.4678 44.3507Z" fill="black"/>
</svg>
