<svg width="198" height="100" viewBox="0 0 198 100" fill="none" xmlns="http://www.w3.org/2000/svg">
<path d="M87.6517 40.0198C87.6517 38.737 88.6548 37.936 89.8996 37.936C91.1443 37.936 92.1475 38.737 92.1475 40.0198C92.1475 41.3027 91.1453 42.0779 89.8996 42.0779C88.6539 42.0779 87.6517 41.3303 87.6517 40.0198Z" fill="black"/>
<path d="M91.6324 43.6551V57.4198H88.1388V43.6551H91.6324Z" fill="black"/>
<path d="M86.2377 57.4189V38.7103H82.5277V57.4189H86.2377Z" fill="black"/>
<path fill-rule="evenodd" clip-rule="evenodd" d="M74.7625 57.7398C78.3644 57.7398 81.0172 54.6665 81.0172 50.5246C81.0172 46.4075 78.3644 43.3341 74.7596 43.3341C73.6752 43.3065 72.6109 43.6267 71.727 44.2465C71.5395 44.3865 71.3247 44.4867 71.096 44.5408C70.8674 44.5952 70.6299 44.6026 70.3982 44.5627C70.1667 44.5225 69.946 44.436 69.7497 44.3084C69.5536 44.1805 69.3861 44.0142 69.2578 43.8198L69.1506 43.6551H66.9355V61.936H70.4272V57.3246C70.4272 57.1853 70.4667 57.0487 70.5412 56.9303C70.6162 56.8124 70.7234 56.7176 70.8505 56.657C70.9777 56.5962 71.1198 56.5721 71.2603 56.5875C71.4015 56.6024 71.5356 56.6566 71.6468 56.7437C72.5388 57.4179 73.6388 57.7696 74.7625 57.7398ZM73.9208 46.4075C75.9773 46.4075 77.4415 47.9046 77.4415 50.5513L77.4492 50.5608C77.4492 53.197 76.0257 54.6741 73.9285 54.6741C71.8314 54.6741 70.3818 53.1979 70.3818 50.5513C70.3818 47.9046 71.8643 46.4075 73.9208 46.4075Z" fill="black"/>
<path fill-rule="evenodd" clip-rule="evenodd" d="M107.099 43.6551H104.719C104.607 43.8643 104.45 44.0474 104.259 44.1922C104.069 44.3369 103.85 44.4398 103.616 44.4941C103.382 44.5485 103.139 44.5531 102.904 44.5074C102.668 44.4622 102.444 44.3677 102.248 44.2303C101.382 43.6236 100.339 43.3092 99.2766 43.3341C95.7009 43.3341 93.021 46.3827 93.021 50.5246C93.021 54.6665 95.7009 57.7398 99.2766 57.7398C100.345 57.7675 101.395 57.4575 102.273 56.8551C102.466 56.7207 102.687 56.6285 102.92 56.5846C103.153 56.5399 103.393 56.5445 103.624 56.5979C103.854 56.6515 104.071 56.7521 104.26 56.8932C104.449 57.0351 104.606 57.2145 104.719 57.4198H107.099V43.6551ZM100.143 46.4027C102.227 46.4027 103.663 47.8779 103.663 50.5246H103.666C103.666 53.1703 102.237 54.6665 100.147 54.6665C98.058 54.6665 96.5948 53.177 96.5948 50.5246C96.5948 47.8722 98.058 46.4027 100.143 46.4027Z" fill="black"/>
<path d="M121.108 48.5427V57.417H117.612V49.1265C117.612 47.3342 116.582 46.3199 115.175 46.3199C113.523 46.3199 112.331 47.417 112.331 49.3151V57.4103H108.845V43.6475H110.971L111.098 43.8122C111.228 43.9877 111.392 44.136 111.581 44.2484C111.771 44.3608 111.982 44.435 112.202 44.4665C112.421 44.4988 112.645 44.4875 112.86 44.4332C113.075 44.3796 113.277 44.2844 113.454 44.1532C114.24 43.5935 115.191 43.3056 116.16 43.3342C118.993 43.3342 121.108 45.3932 121.108 48.5427Z" fill="black"/>
<path d="M127.801 46.4075H130.915L130.936 43.6456H127.821V39.9989H124.328V42.4008C124.328 42.7334 124.194 43.0523 123.955 43.2875C123.837 43.404 123.697 43.4965 123.543 43.5596C123.389 43.6226 123.223 43.6551 123.056 43.6551H121.775V46.4075H124.317V53.256C124.317 54.358 124.76 55.4149 125.55 56.1951C125.941 56.5807 126.405 56.8867 126.916 57.0955C127.427 57.3043 127.974 57.412 128.527 57.4122H130.924V54.4465H129.436C128.346 54.4465 127.801 53.7846 127.801 52.4741V46.4075Z" fill="black"/>
</svg>
