<svg width="198" height="100" viewBox="0 0 198 100" fill="none" xmlns="http://www.w3.org/2000/svg">
<path d="M68.9492 54.9559V43.1938H74.0604C75.1624 43.1938 76.0141 43.5139 76.616 44.1542C77.218 44.7948 77.519 45.654 77.519 46.7325C77.519 47.8111 77.218 48.6705 76.616 49.3108C76.0141 49.9511 75.1622 50.2713 74.0604 50.2713H70.8746V54.9559H68.9492ZM70.8746 48.603H73.9413C74.4296 48.603 74.8103 48.4766 75.0828 48.2238C75.3555 47.9711 75.4916 47.6087 75.4916 47.137V46.3281C75.4916 45.8561 75.3553 45.4939 75.0828 45.241C74.8103 44.9881 74.4296 44.8618 73.9413 44.8618H70.8746V48.603ZM84.9304 46.1933H86.7194L82.9883 56.6918C82.886 56.9838 82.7695 57.2339 82.639 57.4416C82.5083 57.6494 82.355 57.818 82.1789 57.9471C82.0028 58.0763 81.7902 58.1719 81.5401 58.2335C81.2903 58.2954 80.9949 58.3263 80.6541 58.3263H79.5808V56.8266H81.08L81.5912 55.3436L78.371 46.1933H80.228L82 51.3498L82.5112 53.254H82.5962L83.1584 51.3498L84.9304 46.1933ZM93.723 53.5069H93.6379C93.4448 54.0235 93.1295 54.428 92.6921 54.7203C92.2549 55.0123 91.7409 55.1583 91.1501 55.1583C90.0256 55.1583 89.1567 54.7566 88.5434 53.9534C87.9302 53.1499 87.6234 52.0239 87.6234 50.5747C87.6234 49.1255 87.9299 47.9992 88.5434 47.196C89.1569 46.3928 90.0256 45.9912 91.1501 45.9912C91.7406 45.9912 92.2547 46.1345 92.6921 46.4209C93.1293 46.7073 93.4446 47.1146 93.6379 47.6425H93.723V42.4862H95.58V54.9559H93.723V53.5069ZM91.7125 53.5742C92.2804 53.5742 92.7576 53.4365 93.1437 53.1612C93.5299 52.8862 93.723 52.5238 93.723 52.0745V49.075C93.723 48.6256 93.5299 48.2632 93.1437 47.9879C92.7576 47.7126 92.2804 47.5752 91.7125 47.5752C91.0653 47.5752 90.5484 47.7804 90.162 48.1903C89.7759 48.6004 89.5828 49.1422 89.5828 49.8166V51.3331C89.5828 52.0072 89.7759 52.5493 90.162 52.9591C90.5482 53.369 91.065 53.574 91.7125 53.5742ZM104.729 54.9559C104.241 54.9559 103.866 54.8182 103.605 54.5429C103.343 54.2679 103.184 53.9168 103.127 53.4899H103.042C102.872 54.0405 102.56 54.4561 102.105 54.737C101.651 55.0178 101.1 55.1583 100.453 55.1583C99.5327 55.1583 98.8257 54.9224 98.3315 54.4507C97.8373 53.9787 97.5904 53.344 97.5904 52.5464C97.5904 51.67 97.9111 51.0129 98.5529 50.575C99.1945 50.1367 100.135 49.9176 101.373 49.9176H102.974V49.176C102.974 48.6367 102.827 48.2212 102.531 47.9289C102.236 47.6368 101.776 47.4909 101.151 47.4909C100.629 47.4909 100.203 47.6033 99.8738 47.8278C99.5443 48.0526 99.2659 48.339 99.0388 48.6873L97.9314 47.693C98.2268 47.1986 98.6414 46.7913 99.1752 46.4714C99.7091 46.1512 100.408 45.9912 101.271 45.9912C102.418 45.9912 103.298 46.2554 103.912 46.7833C104.525 47.3112 104.832 48.0696 104.832 49.0582V53.4564H105.769V54.9562H104.729V54.9559ZM100.981 53.7595C101.56 53.7595 102.037 53.6332 102.412 53.3804C102.786 53.1275 102.974 52.7877 102.974 52.3608V51.0972H101.407C100.123 51.0972 99.4812 51.4906 99.4812 52.2766V52.58C99.4812 52.9733 99.6147 53.2682 99.8815 53.4646C100.149 53.6611 100.515 53.7595 100.981 53.7595ZM107.591 54.9559V46.1933H109.448V47.6425H109.533C109.727 47.1707 110.019 46.7776 110.411 46.4629C110.803 46.1484 111.339 45.9909 112.021 45.9909C112.93 45.9909 113.637 46.2858 114.142 46.8756C114.648 47.4654 114.9 48.3052 114.9 49.3949V54.9556H113.043V49.6307C113.043 48.2601 112.487 47.5749 111.374 47.5749C111.135 47.5749 110.899 47.6059 110.666 47.6677C110.434 47.7294 110.226 47.8222 110.045 47.9459C109.865 48.067 109.716 48.2287 109.61 48.4174C109.502 48.6086 109.448 48.8332 109.448 49.0914V54.9556H107.591V54.9559ZM119.927 54.9559C119.279 54.9559 118.791 54.7904 118.461 54.4589C118.132 54.1277 117.967 53.6585 117.967 53.052V47.693H116.587V46.1933H117.337C117.643 46.1933 117.856 46.126 117.976 45.9912C118.095 45.8563 118.155 45.637 118.155 45.3338V43.8003H119.824V46.1933H121.682V47.693H119.824V53.4561H121.545V54.9559H119.927ZM124.629 44.6262C124.243 44.6262 123.961 44.5365 123.785 44.3568C123.609 44.1769 123.521 43.9467 123.521 43.666V43.3794C123.521 43.0986 123.609 42.8682 123.785 42.6885C123.961 42.5088 124.243 42.4191 124.629 42.4191C125.015 42.4191 125.293 42.5088 125.464 42.6885C125.634 42.8682 125.719 43.0986 125.719 43.3794V43.6657C125.719 43.9467 125.634 44.1769 125.464 44.3566C125.293 44.5363 125.015 44.6262 124.629 44.6262ZM123.692 46.1933H125.549V54.9559H123.692V46.1933ZM131.631 55.1583C130.995 55.1583 130.427 55.0518 129.927 54.8381C129.427 54.6246 129.007 54.3184 128.667 53.9196C128.326 53.5208 128.064 53.0378 127.883 52.4704C127.701 51.903 127.61 51.271 127.61 50.5747C127.61 49.8779 127.701 49.2461 127.883 48.679C128.064 48.1116 128.326 47.6283 128.667 47.2298C129.007 46.8307 129.427 46.5248 129.927 46.3113C130.427 46.0979 130.995 45.9912 131.631 45.9912C132.517 45.9912 133.244 46.1878 133.812 46.581C134.38 46.9743 134.794 47.4966 135.056 48.1482L133.523 48.8561C133.398 48.4516 133.179 48.1286 132.867 47.8871C132.554 47.6456 132.142 47.5247 131.631 47.5247C130.95 47.5247 130.436 47.7353 130.089 48.1567C129.743 48.578 129.57 49.1255 129.57 49.7998V51.3669C129.57 52.0409 129.743 52.5887 130.089 53.0099C130.436 53.4311 130.95 53.6417 131.631 53.6417C132.176 53.6417 132.611 53.5098 132.935 53.2458C133.258 52.9818 133.517 52.6307 133.71 52.1928L135.124 52.9344C134.828 53.6533 134.386 54.2037 133.795 54.5857C133.204 54.9672 132.483 55.1583 131.631 55.1583ZM148.481 54.9559L147.408 51.771H142.961L141.922 54.9559H139.962L144.017 43.1938H146.437L150.492 54.9559H148.481ZM145.227 44.9461H145.142L143.421 50.1365H146.931L145.227 44.9461ZM151.821 54.9559V53.4056H153.439V44.744H151.821V43.1938H157V44.744H155.364V53.4056H157V54.9559H151.821Z" fill="black"/>
<path d="M62.4835 54.5656L52.4951 40.7281C52.1806 40.2961 51.456 40.2961 51.1446 40.7281L41.1562 54.5656C41.0546 54.7072 41 54.877 41 55.0513C41.0005 55.4104 41.2302 55.7287 41.5707 55.8424L51.5591 59.1092H51.5606C51.7282 59.1639 51.9092 59.1639 52.0767 59.1092H52.0783L62.0666 55.8427C62.3195 55.7607 62.5175 55.5622 62.5984 55.3091C62.6819 55.0567 62.6381 54.7799 62.4811 54.5654L62.4835 54.5656ZM51.8205 42.6349L55.824 48.1815L52.0803 46.9573C52.0514 46.9481 52.0208 46.9496 51.9919 46.9426C51.9635 46.9357 51.9347 46.931 51.9058 46.9285C51.8769 46.9246 51.8496 46.9135 51.8207 46.9135C51.7919 46.9135 51.7651 46.9246 51.7362 46.9285C51.7073 46.9316 51.6784 46.9362 51.6503 46.9426C51.6207 46.9481 51.59 46.9481 51.5635 46.9573L47.8422 48.1743L47.8187 48.182L51.8223 42.6344H51.8207L51.8205 42.6349ZM46.1638 50.4724L50.5223 49.0461L50.9876 48.8945V57.1728L43.1728 54.6162L46.1638 50.4724ZM52.6539 57.1713V48.8945L57.4774 50.4724L60.4684 54.6139L52.6531 57.1713H52.6539Z" fill="black"/>
</svg>
