<svg width="198" height="100" viewBox="0 0 198 100" fill="none" xmlns="http://www.w3.org/2000/svg">
<g clip-path="url(#clip0_10319_45335)">
<path d="M70.3585 38.3324L68.887 36.936L60.5769 45.2532L55.6937 40.3697L52.7471 43.2616L59.014 49.5338L70.3585 38.3324Z" fill="black"/>
<path d="M68.8182 49.5491L75.0698 43.2922L72.0546 40.2781L65.8486 46.577L68.8182 49.5491Z" fill="black"/>
<path d="M68.8488 59.5335L75.2873 53.0896L72.1805 49.9802L67.1449 55.0201L62.2007 50.0718L60.8398 51.5216L68.8488 59.5335Z" fill="black"/>
<path d="M58.9411 59.3695L61.9564 56.3555L55.6971 50.0909L52.6895 53.1125L58.9411 59.3695Z" fill="black"/>
</g>
<g clip-path="url(#clip1_10319_45335)">
<path d="M98.5862 57.7909H95.6689L90.6399 49.875H86.9724V57.7909H84.46V38.9495H92.43C95.2759 39.1356 97.9472 40.5849 98.1853 43.6856C98.3917 46.3783 97.328 48.4811 94.7282 49.4077C94.3114 49.5582 93.8748 49.5978 93.4858 49.7245C93.4342 49.7403 93.3906 49.7403 93.3588 49.7958L98.5862 57.787V57.7909ZM86.9724 47.7208C88.5244 47.6653 90.1279 47.796 91.6759 47.7208C94.0733 47.6099 96.0578 46.5684 95.6649 43.84C95.3632 41.7571 93.5374 41.1868 91.6759 41.0997C90.1279 41.0284 88.5244 41.1591 86.9724 41.0997V47.7128V47.7208Z" fill="black"/>
<path d="M111.459 57.791H109.097C109.077 57.4029 109.093 56.9436 109.049 56.5595C109.041 56.4842 109.045 56.4367 108.97 56.3892C108.168 57.3158 106.811 57.8623 105.6 57.989C103.338 58.2266 100.75 57.2366 100.353 54.7498C99.5829 49.9147 105.664 49.6335 108.942 48.9167C108.986 47.6733 109.049 46.6715 107.735 46.1408C106.029 45.4478 103.294 45.8795 103.163 48.1208H100.849C100.992 44.6479 104.449 43.4876 107.454 43.8678C109.668 44.149 111.117 45.3567 111.256 47.6456C111.419 50.3621 111.137 53.2331 111.256 55.9655L111.459 57.791ZM108.946 50.7264C107.918 50.9561 106.862 51.1145 105.838 51.36C104.473 51.6887 102.746 52.1045 102.659 53.8033C102.492 57.0346 107.696 56.6347 108.752 54.1162C108.787 54.029 108.942 53.6093 108.942 53.5578V50.7264H108.946Z" fill="black"/>
<path d="M134.935 44.0618L138.782 54.5834L142.576 44.0618H145.089L138.964 59.7273C138.583 60.5471 138.123 61.3588 137.392 61.9172C136.309 62.7488 134.876 62.7607 133.574 62.5468V60.5431C134.241 60.6223 134.967 60.7569 135.61 60.4956C136.666 60.0679 137.071 58.2186 137.492 57.2682L132.415 44.0618H134.928H134.935Z" fill="black"/>
<path d="M117.44 38.9495H115.078V57.787H117.44V38.9495Z" fill="black"/>
<path d="M123.775 38.9495H121.413V57.787H123.775V38.9495Z" fill="black"/>
<path d="M130.058 38.9495H127.696V57.787H130.058V38.9495Z" fill="black"/>
</g>
<defs>
<clipPath id="clip0_10319_45335">
<rect width="22.5975" height="22.5975" fill="white" transform="translate(52.6895 36.936)"/>
</clipPath>
<clipPath id="clip1_10319_45335">
<rect width="60.6328" height="23.7162" fill="white" transform="translate(84.46 38.9495)"/>
</clipPath>
</defs>
</svg>
