<svg width="198" height="100" viewBox="0 0 198 100" fill="none" xmlns="http://www.w3.org/2000/svg">
<g clip-path="url(#clip0_10319_45287)">
<path fill-rule="evenodd" clip-rule="evenodd" d="M113.066 41.8542H116.023V58.2941H113.066V41.8542ZM136.898 48.787V46.2382H133.865V42.9248H130.908V55.0316C130.908 56.1531 131.189 56.9942 131.749 57.555C132.31 58.1157 133.151 58.3961 134.298 58.3961H136.898V55.8473H134.986C134.579 55.8473 134.273 55.7453 134.094 55.5669C133.941 55.414 133.839 54.9807 133.839 54.5219V48.787H136.898ZM93.0569 55.0826L96.0901 46.2127H99.1743L94.7901 58.2686H91.2981L86.914 46.2382H89.9982L93.0569 55.0826ZM126.116 52.2534C126.116 53.0181 125.989 53.6808 125.785 54.216C125.555 54.7513 125.224 55.1846 124.816 55.4649C124.408 55.7453 123.899 55.8728 123.312 55.8728C122.471 55.8728 121.834 55.5924 121.426 55.0571C121.018 54.4964 120.789 53.6808 120.789 52.5848V46.2127H117.832V52.8906C117.832 53.9357 117.96 54.8277 118.215 55.5159C118.47 56.2296 118.826 56.7903 119.26 57.2236C119.693 57.6569 120.203 57.9628 120.789 58.1412C121.35 58.3196 121.962 58.4216 122.599 58.4216C123.516 58.4216 124.281 58.2432 124.867 57.9373C125.403 57.6314 125.836 57.2746 126.193 56.8923L126.448 58.2941H129.022V46.2382H126.065V52.2534H126.116ZM108.554 46.8499C107.637 46.3402 106.515 46.0853 105.292 46.0853C104.068 46.0853 102.972 46.3402 102.029 46.8499C101.086 47.3597 100.347 48.0989 99.837 49.0164C99.3272 49.934 99.0723 51.03 99.0723 52.2534C99.0723 53.4769 99.3272 54.5474 99.837 55.4649C100.347 56.3825 101.086 57.1217 102.029 57.6314C102.972 58.1412 104.068 58.3961 105.292 58.3961C106.541 58.3961 107.637 58.1412 108.554 57.6314C109.472 57.1217 110.211 56.3825 110.721 55.4649C111.231 54.5474 111.485 53.4514 111.485 52.2534C111.485 51.03 111.231 49.934 110.721 49.0164C110.237 48.0989 109.497 47.3852 108.554 46.8499ZM106.999 55.4649C106.515 55.7708 105.954 55.9237 105.292 55.9237C104.629 55.9237 104.068 55.7708 103.584 55.4649C103.1 55.1591 102.717 54.7258 102.462 54.165C102.207 53.6043 102.055 52.9671 102.055 52.2534C102.055 51.5143 102.182 50.8771 102.462 50.3418C102.717 49.8066 103.1 49.3478 103.584 49.0419C104.068 48.7361 104.629 48.5576 105.292 48.5576C105.954 48.5576 106.541 48.7106 106.999 49.0419C107.484 49.3478 107.841 49.8066 108.121 50.3418C108.376 50.8771 108.529 51.5398 108.529 52.2534C108.529 52.9671 108.401 53.6043 108.121 54.165C107.866 54.7258 107.484 55.1591 106.999 55.4649ZM64.9679 45.9069H61.9092V58.2686H64.9679V45.9069ZM74.5773 46.6205C74.5773 43.9953 72.4362 41.8542 69.8108 41.8542H61.9092V44.505H69.4285C70.6265 44.505 71.595 45.4481 71.6205 46.5951C71.6205 47.1813 71.4166 47.7165 71.0088 48.1243C70.601 48.5067 70.0657 48.7361 69.5049 48.7361H66.5737C66.4717 48.7361 66.3953 48.8125 66.3953 48.9145V51.2849C66.3953 51.3359 66.3953 51.3613 66.4208 51.3868L71.3911 58.2686H75.0361L70.0402 51.3613C72.5381 51.2594 74.5773 49.1439 74.5773 46.6205ZM83.9827 46.799C83.0906 46.3402 82.0456 46.0853 80.8731 46.0853C79.7006 46.0853 78.63 46.3402 77.7379 46.8499C76.8203 47.3597 76.1321 48.0989 75.6223 49.0164C75.1125 49.934 74.8831 51.03 74.8831 52.2789C74.8831 53.5024 75.138 54.5729 75.6478 55.4904C76.1576 56.408 76.8968 57.1472 77.8144 57.6314C78.7575 58.1412 79.879 58.3961 81.1535 58.3961C82.173 58.3961 83.0651 58.2177 83.8553 57.8353C84.6455 57.453 85.2827 56.9433 85.7415 56.3061C86.2003 55.6943 86.5062 55.0316 86.6591 54.2925L86.6846 54.216H83.7024L83.6769 54.267C83.5239 54.8277 83.1926 55.261 82.7593 55.5669C82.275 55.8982 81.6632 56.0767 80.975 56.0767C80.3888 56.0767 79.8535 55.9492 79.3947 55.6943C78.9359 55.4395 78.5791 55.0826 78.3242 54.6493C78.0693 54.1905 77.9418 53.6553 77.8909 53.0436V52.9416H86.7356V52.8906C86.7611 52.7122 86.7866 52.5338 86.7866 52.3809C86.7866 52.2025 86.7866 52.0495 86.7866 51.8711C86.7611 50.6987 86.5062 49.6791 86.0219 48.8125C85.5631 47.9204 84.8494 47.2577 83.9827 46.799ZM82.9122 49.0674C83.422 49.5007 83.7279 50.0869 83.8553 50.8516H78.0183C78.0948 50.3673 78.2477 49.934 78.5026 49.5772C78.783 49.1948 79.1143 48.9145 79.5476 48.7106C79.9555 48.5067 80.4143 48.4047 80.8986 48.4047C81.7142 48.4047 82.3769 48.6341 82.9122 49.0674Z" fill="black"/>
</g>
<defs>
<clipPath id="clip0_10319_45287">
<rect width="74.989" height="16.5673" fill="white" transform="translate(61.9092 41.8542)"/>
</clipPath>
</defs>
</svg>
