<svg width="33" height="33" viewBox="0 0 33 33" fill="none" xmlns="http://www.w3.org/2000/svg">
<g clip-path="url(#clip0_10897_9227)">
<rect x="9" y="8" width="17" height="17" fill="black"/>
<path d="M7.77832 29.6807C6.3623 29.6807 5.29785 29.3291 4.58496 28.626C3.88184 27.9229 3.53027 26.8779 3.53027 25.4912V8.54297C3.53027 7.14648 3.88184 6.10156 4.58496 5.4082C5.29785 4.70508 6.3623 4.35352 7.77832 4.35352H24.624C26.04 4.35352 27.0996 4.70508 27.8027 5.4082C28.5059 6.11133 28.8574 7.15625 28.8574 8.54297V25.4912C28.8574 26.8779 28.5059 27.9229 27.8027 28.626C27.0996 29.3291 26.04 29.6807 24.624 29.6807H7.77832ZM11.9971 23.499C12.2021 23.499 12.373 23.4551 12.5098 23.3672C12.6562 23.2793 12.8125 23.123 12.9785 22.8984L16.1279 18.3867H16.1865L19.3066 22.8984C19.4727 23.123 19.624 23.2793 19.7607 23.3672C19.9072 23.4551 20.083 23.499 20.2881 23.499C20.5811 23.499 20.8252 23.4111 21.0205 23.2354C21.2158 23.0596 21.3135 22.8301 21.3135 22.5469C21.3135 22.3027 21.2256 22.0732 21.0498 21.8584L17.4609 16.8926L21.0938 11.8828C21.2598 11.6582 21.3428 11.4287 21.3428 11.1943C21.3428 10.9307 21.2451 10.7158 21.0498 10.5498C20.8643 10.374 20.6348 10.2861 20.3613 10.2861C20.1562 10.2861 19.9805 10.3301 19.834 10.418C19.6973 10.5059 19.5557 10.6572 19.4092 10.8721L16.3477 15.3838H16.2744L13.1689 10.8574C13.0322 10.6426 12.8906 10.4961 12.7441 10.418C12.5977 10.3301 12.4121 10.2861 12.1875 10.2861C11.9141 10.2861 11.6748 10.3789 11.4697 10.5645C11.2646 10.75 11.1621 10.9746 11.1621 11.2383C11.1621 11.4922 11.2598 11.7461 11.4551 12L14.9121 16.8193L11.2793 21.917C11.1133 22.1416 11.0303 22.3662 11.0303 22.5908C11.0303 22.8545 11.123 23.0742 11.3086 23.25C11.4941 23.416 11.7236 23.499 11.9971 23.499Z" fill="#FCFCFC"/>
</g>
<defs>
<clipPath id="clip0_10897_9227">
<rect width="33" height="33" fill="white"/>
</clipPath>
</defs>
</svg>
