<svg width="33" height="33" viewBox="0 0 33 33" fill="none" xmlns="http://www.w3.org/2000/svg">
<g opacity="0.8">
<rect x="9" y="10" width="14" height="14" fill="black"/>
<path d="M16.207 28.2227C14.6602 28.2227 13.207 27.9297 11.8477 27.3438C10.4961 26.7656 9.30469 25.9609 8.27344 24.9297C7.24219 23.8984 6.43359 22.707 5.84766 21.3555C5.26953 19.9961 4.98047 18.543 4.98047 16.9961C4.98047 15.4492 5.26953 14 5.84766 12.6484C6.43359 11.2891 7.24219 10.0938 8.27344 9.0625C9.30469 8.03125 10.4961 7.22656 11.8477 6.64844C13.207 6.0625 14.6602 5.76953 16.207 5.76953C17.7539 5.76953 19.2031 6.0625 20.5547 6.64844C21.9141 7.22656 23.1094 8.03125 24.1406 9.0625C25.1719 10.0938 25.9766 11.2891 26.5547 12.6484C27.1406 14 27.4336 15.4492 27.4336 16.9961C27.4336 18.543 27.1406 19.9961 26.5547 21.3555C25.9766 22.707 25.1719 23.8984 24.1406 24.9297C23.1094 25.9609 21.9141 26.7656 20.5547 27.3438C19.2031 27.9297 17.7539 28.2227 16.207 28.2227ZM12.4805 21.5781C12.7227 21.5781 12.9258 21.4961 13.0898 21.332L16.207 18.2031L19.3359 21.332C19.4922 21.4961 19.6914 21.5781 19.9336 21.5781C20.168 21.5781 20.3672 21.4961 20.5312 21.332C20.6953 21.168 20.7773 20.9688 20.7773 20.7344C20.7773 20.4922 20.6953 20.293 20.5312 20.1367L17.3906 17.0078L20.543 13.8789C20.707 13.7148 20.7891 13.5117 20.7891 13.2695C20.7891 13.043 20.707 12.8516 20.543 12.6953C20.3789 12.5312 20.1836 12.4492 19.957 12.4492C19.7383 12.4492 19.543 12.5352 19.3711 12.707L16.207 15.8477L13.0664 12.7188C12.8945 12.5469 12.6992 12.4609 12.4805 12.4609C12.2539 12.4609 12.0586 12.543 11.8945 12.707C11.7305 12.8633 11.6484 13.0586 11.6484 13.293C11.6484 13.5195 11.7305 13.7188 11.8945 13.8906L15.0352 17.0078L11.8945 20.1484C11.7305 20.3125 11.6484 20.5078 11.6484 20.7344C11.6484 20.9688 11.7305 21.168 11.8945 21.332C12.0586 21.4961 12.2539 21.5781 12.4805 21.5781Z" fill="#FCFCFC"/>
</g>
</svg>
