<svg width="124" height="124" viewBox="0 0 124 124" fill="none" xmlns="http://www.w3.org/2000/svg">
  <style>
    .favicon-dot {
      fill: #000000;
    }
    @media (prefers-color-scheme: dark) {
      .favicon-dot {
        fill: #ffffff;
      }
    }
  </style>
  <path d="M47 22C50.3137 22 53 19.3137 53 16C53 12.6863 50.3137 10 47 10C43.6863 10 41 12.6863 41 16C41 19.3137 43.6863 22 47 22Z" class="favicon-dot"/>
  <path d="M62 22C65.3137 22 68 19.3137 68 16C68 12.6863 65.3137 10 62 10C58.6863 10 56 12.6863 56 16C56 19.3137 58.6863 22 62 22Z" class="favicon-dot"/>
  <path d="M77 22C80.3137 22 83 19.3137 83 16C83 12.6863 80.3137 10 77 10C73.6863 10 71 12.6863 71 16C71 19.3137 73.6863 22 77 22Z" class="favicon-dot"/>
  <path d="M47 37C50.3137 37 53 34.3137 53 31C53 27.6863 50.3137 25 47 25C43.6863 25 41 27.6863 41 31C41 34.3137 43.6863 37 47 37Z" class="favicon-dot"/>
  <path d="M31 37C34.3137 37 37 34.3137 37 31C37 27.6863 34.3137 25 31 25C27.6863 25 25 27.6863 25 31C25 34.3137 27.6863 37 31 37Z" class="favicon-dot"/>
  <path d="M62 37C65.3137 37 68 34.3137 68 31C68 27.6863 65.3137 25 62 25C58.6863 25 56 27.6863 56 31C56 34.3137 58.6863 37 62 37Z" class="favicon-dot"/>
  <path d="M77 37C80.3137 37 83 34.3137 83 31C83 27.6863 80.3137 25 77 25C73.6863 25 71 27.6863 71 31C71 34.3137 73.6863 37 77 37Z" class="favicon-dot"/>
  <path d="M93 37C96.3137 37 99 34.3137 99 31C99 27.6863 96.3137 25 93 25C89.6863 25 87 27.6863 87 31C87 34.3137 89.6863 37 93 37Z" class="favicon-dot"/>
  <path d="M77 114C80.3137 114 83 111.314 83 108C83 104.686 80.3137 102 77 102C73.6863 102 71 104.686 71 108C71 111.314 73.6863 114 77 114Z" class="favicon-dot"/>
  <path d="M62 114C65.3137 114 68 111.314 68 108C68 104.686 65.3137 102 62 102C58.6863 102 56 104.686 56 108C56 111.314 58.6863 114 62 114Z" class="favicon-dot"/>
  <path d="M47 114C50.3137 114 53 111.314 53 108C53 104.686 50.3137 102 47 102C43.6863 102 41 104.686 41 108C41 111.314 43.6863 114 47 114Z" class="favicon-dot"/>
  <path d="M77 99C80.3137 99 83 96.3137 83 93C83 89.6863 80.3137 87 77 87C73.6863 87 71 89.6863 71 93C71 96.3137 73.6863 99 77 99Z" class="favicon-dot"/>
  <path d="M93 99C96.3137 99 99 96.3137 99 93C99 89.6863 96.3137 87 93 87C89.6863 87 87 89.6863 87 93C87 96.3137 89.6863 99 93 99Z" class="favicon-dot"/>
  <path d="M62 99C65.3137 99 68 96.3137 68 93C68 89.6863 65.3137 87 62 87C58.6863 87 56 89.6863 56 93C56 96.3137 58.6863 99 62 99Z" class="favicon-dot"/>
  <path d="M47 99C50.3137 99 53 96.3137 53 93C53 89.6863 50.3137 87 47 87C43.6863 87 41 89.6863 41 93C41 96.3137 43.6863 99 47 99Z" class="favicon-dot"/>
  <path d="M31 99C34.3137 99 37 96.3137 37 93C37 89.6863 34.3137 87 31 87C27.6863 87 25 89.6863 25 93C25 96.3137 27.6863 99 31 99Z" class="favicon-dot"/>
  <path d="M47 53C50.3137 53 53 50.3137 53 47C53 43.6863 50.3137 41 47 41C43.6863 41 41 43.6863 41 47C41 50.3137 43.6863 53 47 53Z" class="favicon-dot"/>
  <path d="M31 53C34.3137 53 37 50.3137 37 47C37 43.6863 34.3137 41 31 41C27.6863 41 25 43.6863 25 47C25 50.3137 27.6863 53 31 53Z" class="favicon-dot"/>
  <path d="M16 53C19.3137 53 22 50.3137 22 47C22 43.6863 19.3137 41 16 41C12.6863 41 10 43.6863 10 47C10 50.3137 12.6863 53 16 53Z" class="favicon-dot"/>
  <path d="M62 53C65.3137 53 68 50.3137 68 47C68 43.6863 65.3137 41 62 41C58.6863 41 56 43.6863 56 47C56 50.3137 58.6863 53 62 53Z" class="favicon-dot"/>
  <path d="M77 53C80.3137 53 83 50.3137 83 47C83 43.6863 80.3137 41 77 41C73.6863 41 71 43.6863 71 47C71 50.3137 73.6863 53 77 53Z" class="favicon-dot"/>
  <path d="M93 53C96.3137 53 99 50.3137 99 47C99 43.6863 96.3137 41 93 41C89.6863 41 87 43.6863 87 47C87 50.3137 89.6863 53 93 53Z" class="favicon-dot"/>
  <path d="M108 53C111.314 53 114 50.3137 114 47C114 43.6863 111.314 41 108 41C104.686 41 102 43.6863 102 47C102 50.3137 104.686 53 108 53Z" class="favicon-dot"/>
  <path d="M47 68C50.3137 68 53 65.3137 53 62C53 58.6863 50.3137 56 47 56C43.6863 56 41 58.6863 41 62C41 65.3137 43.6863 68 47 68Z" class="favicon-dot"/>
  <path d="M31 68C34.3137 68 37 65.3137 37 62C37 58.6863 34.3137 56 31 56C27.6863 56 25 58.6863 25 62C25 65.3137 27.6863 68 31 68Z" class="favicon-dot"/>
  <path d="M16 68C19.3137 68 22 65.3137 22 62C22 58.6863 19.3137 56 16 56C12.6863 56 10 58.6863 10 62C10 65.3137 12.6863 68 16 68Z" class="favicon-dot"/>
  <path d="M62 68C65.3137 68 68 65.3137 68 62C68 58.6863 65.3137 56 62 56C58.6863 56 56 58.6863 56 62C56 65.3137 58.6863 68 62 68Z" class="favicon-dot"/>
  <path d="M77 68C80.3137 68 83 65.3137 83 62C83 58.6863 80.3137 56 77 56C73.6863 56 71 58.6863 71 62C71 65.3137 73.6863 68 77 68Z" class="favicon-dot"/>
  <path d="M93 68C96.3137 68 99 65.3137 99 62C99 58.6863 96.3137 56 93 56C89.6863 56 87 58.6863 87 62C87 65.3137 89.6863 68 93 68Z" class="favicon-dot"/>
  <path d="M108 68C111.314 68 114 65.3137 114 62C114 58.6863 111.314 56 108 56C104.686 56 102 58.6863 102 62C102 65.3137 104.686 68 108 68Z" class="favicon-dot"/>
  <path d="M47 83C50.3137 83 53 80.3137 53 77C53 73.6863 50.3137 71 47 71C43.6863 71 41 73.6863 41 77C41 80.3137 43.6863 83 47 83Z" class="favicon-dot"/>
  <path d="M31 83C34.3137 83 37 80.3137 37 77C37 73.6863 34.3137 71 31 71C27.6863 71 25 73.6863 25 77C25 80.3137 27.6863 83 31 83Z" class="favicon-dot"/>
  <path d="M16 83C19.3137 83 22 80.3137 22 77C22 73.6863 19.3137 71 16 71C12.6863 71 10 73.6863 10 77C10 80.3137 12.6863 83 16 83Z" class="favicon-dot"/>
  <path d="M62 83C65.3137 83 68 80.3137 68 77C68 73.6863 65.3137 71 62 71C58.6863 71 56 73.6863 56 77C56 80.3137 58.6863 83 62 83Z" class="favicon-dot"/>
  <path d="M77 83C80.3137 83 83 80.3137 83 77C83 73.6863 80.3137 71 77 71C73.6863 71 71 73.6863 71 77C71 80.3137 73.6863 83 77 83Z" class="favicon-dot"/>
  <path d="M93 83C96.3137 83 99 80.3137 99 77C99 73.6863 96.3137 71 93 71C89.6863 71 87 73.6863 87 77C87 80.3137 89.6863 83 93 83Z" class="favicon-dot"/>
  <path d="M108 83C111.314 83 114 80.3137 114 77C114 73.6863 111.314 71 108 71C104.686 71 102 73.6863 102 77C102 80.3137 104.686 83 108 83Z" class="favicon-dot"/>
</svg>

